G75*
%MOIN*%
%OFA0B0*%
%FSLAX25Y25*%
%IPPOS*%
%LPD*%
%AMOC8*
5,1,8,0,0,1.08239X$1,22.5*
%
%ADD10C,0.01496*%
%ADD11C,0.00920*%
%ADD12C,0.00472*%
%ADD13C,0.01417*%
%ADD14C,0.01000*%
D10*
X0089250Y0216357D02*
X0117754Y0216357D01*
X0089250Y0216357D02*
X0089250Y0222341D01*
X0117754Y0222341D01*
X0117754Y0216357D01*
X0117754Y0217852D02*
X0089250Y0217852D01*
X0089250Y0219347D02*
X0117754Y0219347D01*
X0117754Y0220842D02*
X0089250Y0220842D01*
X0089250Y0222337D02*
X0117754Y0222337D01*
X0117754Y0226357D02*
X0089250Y0226357D01*
X0089250Y0232341D01*
X0117754Y0232341D01*
X0117754Y0226357D01*
X0117754Y0227852D02*
X0089250Y0227852D01*
X0089250Y0229347D02*
X0117754Y0229347D01*
X0117754Y0230842D02*
X0089250Y0230842D01*
X0089250Y0232337D02*
X0117754Y0232337D01*
X0117754Y0236357D02*
X0089250Y0236357D01*
X0089250Y0242341D01*
X0117754Y0242341D01*
X0117754Y0236357D01*
X0117754Y0237852D02*
X0089250Y0237852D01*
X0089250Y0239347D02*
X0117754Y0239347D01*
X0117754Y0240842D02*
X0089250Y0240842D01*
X0089250Y0242337D02*
X0117754Y0242337D01*
X0117754Y0246357D02*
X0089250Y0246357D01*
X0089250Y0252341D01*
X0117754Y0252341D01*
X0117754Y0246357D01*
X0117754Y0247852D02*
X0089250Y0247852D01*
X0089250Y0249347D02*
X0117754Y0249347D01*
X0117754Y0250842D02*
X0089250Y0250842D01*
X0089250Y0252337D02*
X0117754Y0252337D01*
X0117754Y0256357D02*
X0089250Y0256357D01*
X0089250Y0262341D01*
X0117754Y0262341D01*
X0117754Y0256357D01*
X0117754Y0257852D02*
X0089250Y0257852D01*
X0089250Y0259347D02*
X0117754Y0259347D01*
X0117754Y0260842D02*
X0089250Y0260842D01*
X0089250Y0262337D02*
X0117754Y0262337D01*
X0117754Y0266357D02*
X0089250Y0266357D01*
X0089250Y0272341D01*
X0117754Y0272341D01*
X0117754Y0266357D01*
X0117754Y0267852D02*
X0089250Y0267852D01*
X0089250Y0269347D02*
X0117754Y0269347D01*
X0117754Y0270842D02*
X0089250Y0270842D01*
X0089250Y0272337D02*
X0117754Y0272337D01*
X0117754Y0276357D02*
X0089250Y0276357D01*
X0089250Y0282341D01*
X0117754Y0282341D01*
X0117754Y0276357D01*
X0117754Y0277852D02*
X0089250Y0277852D01*
X0089250Y0279347D02*
X0117754Y0279347D01*
X0117754Y0280842D02*
X0089250Y0280842D01*
X0089250Y0282337D02*
X0117754Y0282337D01*
X0117754Y0286357D02*
X0089250Y0286357D01*
X0089250Y0292341D01*
X0117754Y0292341D01*
X0117754Y0286357D01*
X0117754Y0287852D02*
X0089250Y0287852D01*
X0089250Y0289347D02*
X0117754Y0289347D01*
X0117754Y0290842D02*
X0089250Y0290842D01*
X0089250Y0292337D02*
X0117754Y0292337D01*
X0117754Y0296357D02*
X0089250Y0296357D01*
X0089250Y0302341D01*
X0117754Y0302341D01*
X0117754Y0296357D01*
X0117754Y0297852D02*
X0089250Y0297852D01*
X0089250Y0299347D02*
X0117754Y0299347D01*
X0117754Y0300842D02*
X0089250Y0300842D01*
X0089250Y0302337D02*
X0117754Y0302337D01*
X0117754Y0306357D02*
X0089250Y0306357D01*
X0089250Y0312341D01*
X0117754Y0312341D01*
X0117754Y0306357D01*
X0117754Y0307852D02*
X0089250Y0307852D01*
X0089250Y0309347D02*
X0117754Y0309347D01*
X0117754Y0310842D02*
X0089250Y0310842D01*
X0089250Y0312337D02*
X0117754Y0312337D01*
X0117754Y0316357D02*
X0089250Y0316357D01*
X0089250Y0322341D01*
X0117754Y0322341D01*
X0117754Y0316357D01*
X0117754Y0317852D02*
X0089250Y0317852D01*
X0089250Y0319347D02*
X0117754Y0319347D01*
X0117754Y0320842D02*
X0089250Y0320842D01*
X0089250Y0322337D02*
X0117754Y0322337D01*
X0117754Y0326357D02*
X0089250Y0326357D01*
X0089250Y0332341D01*
X0117754Y0332341D01*
X0117754Y0326357D01*
X0117754Y0327852D02*
X0089250Y0327852D01*
X0089250Y0329347D02*
X0117754Y0329347D01*
X0117754Y0330842D02*
X0089250Y0330842D01*
X0089250Y0332337D02*
X0117754Y0332337D01*
D11*
X0102835Y0136623D02*
X0099155Y0136623D01*
X0102835Y0136623D02*
X0102835Y0131243D01*
X0099155Y0131243D01*
X0099155Y0136623D01*
X0099155Y0132162D02*
X0102835Y0132162D01*
X0102835Y0133081D02*
X0099155Y0133081D01*
X0099155Y0134000D02*
X0102835Y0134000D01*
X0102835Y0134919D02*
X0099155Y0134919D01*
X0099155Y0135838D02*
X0102835Y0135838D01*
X0105155Y0136623D02*
X0108835Y0136623D01*
X0108835Y0131243D01*
X0105155Y0131243D01*
X0105155Y0136623D01*
X0105155Y0132162D02*
X0108835Y0132162D01*
X0108835Y0133081D02*
X0105155Y0133081D01*
X0105155Y0134000D02*
X0108835Y0134000D01*
X0108835Y0134919D02*
X0105155Y0134919D01*
X0105155Y0135838D02*
X0108835Y0135838D01*
X0114355Y0136623D02*
X0118035Y0136623D01*
X0118035Y0131243D01*
X0114355Y0131243D01*
X0114355Y0136623D01*
X0114355Y0132162D02*
X0118035Y0132162D01*
X0118035Y0133081D02*
X0114355Y0133081D01*
X0114355Y0134000D02*
X0118035Y0134000D01*
X0118035Y0134919D02*
X0114355Y0134919D01*
X0114355Y0135838D02*
X0118035Y0135838D01*
X0120355Y0136623D02*
X0124035Y0136623D01*
X0124035Y0131243D01*
X0120355Y0131243D01*
X0120355Y0136623D01*
X0120355Y0132162D02*
X0124035Y0132162D01*
X0124035Y0133081D02*
X0120355Y0133081D01*
X0120355Y0134000D02*
X0124035Y0134000D01*
X0124035Y0134919D02*
X0120355Y0134919D01*
X0120355Y0135838D02*
X0124035Y0135838D01*
X0124035Y0147823D02*
X0120355Y0147823D01*
X0124035Y0147823D02*
X0124035Y0142443D01*
X0120355Y0142443D01*
X0120355Y0147823D01*
X0120355Y0143362D02*
X0124035Y0143362D01*
X0124035Y0144281D02*
X0120355Y0144281D01*
X0120355Y0145200D02*
X0124035Y0145200D01*
X0124035Y0146119D02*
X0120355Y0146119D01*
X0120355Y0147038D02*
X0124035Y0147038D01*
X0118035Y0147823D02*
X0114355Y0147823D01*
X0118035Y0147823D02*
X0118035Y0142443D01*
X0114355Y0142443D01*
X0114355Y0147823D01*
X0114355Y0143362D02*
X0118035Y0143362D01*
X0118035Y0144281D02*
X0114355Y0144281D01*
X0114355Y0145200D02*
X0118035Y0145200D01*
X0118035Y0146119D02*
X0114355Y0146119D01*
X0114355Y0147038D02*
X0118035Y0147038D01*
X0118035Y0159023D02*
X0114355Y0159023D01*
X0118035Y0159023D02*
X0118035Y0153643D01*
X0114355Y0153643D01*
X0114355Y0159023D01*
X0114355Y0154562D02*
X0118035Y0154562D01*
X0118035Y0155481D02*
X0114355Y0155481D01*
X0114355Y0156400D02*
X0118035Y0156400D01*
X0118035Y0157319D02*
X0114355Y0157319D01*
X0114355Y0158238D02*
X0118035Y0158238D01*
X0120355Y0159023D02*
X0124035Y0159023D01*
X0124035Y0153643D01*
X0120355Y0153643D01*
X0120355Y0159023D01*
X0120355Y0154562D02*
X0124035Y0154562D01*
X0124035Y0155481D02*
X0120355Y0155481D01*
X0120355Y0156400D02*
X0124035Y0156400D01*
X0124035Y0157319D02*
X0120355Y0157319D01*
X0120355Y0158238D02*
X0124035Y0158238D01*
X0124035Y0170223D02*
X0120355Y0170223D01*
X0124035Y0170223D02*
X0124035Y0164843D01*
X0120355Y0164843D01*
X0120355Y0170223D01*
X0120355Y0165762D02*
X0124035Y0165762D01*
X0124035Y0166681D02*
X0120355Y0166681D01*
X0120355Y0167600D02*
X0124035Y0167600D01*
X0124035Y0168519D02*
X0120355Y0168519D01*
X0120355Y0169438D02*
X0124035Y0169438D01*
X0118035Y0170223D02*
X0114355Y0170223D01*
X0118035Y0170223D02*
X0118035Y0164843D01*
X0114355Y0164843D01*
X0114355Y0170223D01*
X0114355Y0165762D02*
X0118035Y0165762D01*
X0118035Y0166681D02*
X0114355Y0166681D01*
X0114355Y0167600D02*
X0118035Y0167600D01*
X0118035Y0168519D02*
X0114355Y0168519D01*
X0114355Y0169438D02*
X0118035Y0169438D01*
X0108835Y0170223D02*
X0105155Y0170223D01*
X0108835Y0170223D02*
X0108835Y0164843D01*
X0105155Y0164843D01*
X0105155Y0170223D01*
X0105155Y0165762D02*
X0108835Y0165762D01*
X0108835Y0166681D02*
X0105155Y0166681D01*
X0105155Y0167600D02*
X0108835Y0167600D01*
X0108835Y0168519D02*
X0105155Y0168519D01*
X0105155Y0169438D02*
X0108835Y0169438D01*
X0102835Y0170223D02*
X0099155Y0170223D01*
X0102835Y0170223D02*
X0102835Y0164843D01*
X0099155Y0164843D01*
X0099155Y0170223D01*
X0099155Y0165762D02*
X0102835Y0165762D01*
X0102835Y0166681D02*
X0099155Y0166681D01*
X0099155Y0167600D02*
X0102835Y0167600D01*
X0102835Y0168519D02*
X0099155Y0168519D01*
X0099155Y0169438D02*
X0102835Y0169438D01*
X0102835Y0159023D02*
X0099155Y0159023D01*
X0102835Y0159023D02*
X0102835Y0153643D01*
X0099155Y0153643D01*
X0099155Y0159023D01*
X0099155Y0154562D02*
X0102835Y0154562D01*
X0102835Y0155481D02*
X0099155Y0155481D01*
X0099155Y0156400D02*
X0102835Y0156400D01*
X0102835Y0157319D02*
X0099155Y0157319D01*
X0099155Y0158238D02*
X0102835Y0158238D01*
X0105155Y0159023D02*
X0108835Y0159023D01*
X0108835Y0153643D01*
X0105155Y0153643D01*
X0105155Y0159023D01*
X0105155Y0154562D02*
X0108835Y0154562D01*
X0108835Y0155481D02*
X0105155Y0155481D01*
X0105155Y0156400D02*
X0108835Y0156400D01*
X0108835Y0157319D02*
X0105155Y0157319D01*
X0105155Y0158238D02*
X0108835Y0158238D01*
X0108835Y0147823D02*
X0105155Y0147823D01*
X0108835Y0147823D02*
X0108835Y0142443D01*
X0105155Y0142443D01*
X0105155Y0147823D01*
X0105155Y0143362D02*
X0108835Y0143362D01*
X0108835Y0144281D02*
X0105155Y0144281D01*
X0105155Y0145200D02*
X0108835Y0145200D01*
X0108835Y0146119D02*
X0105155Y0146119D01*
X0105155Y0147038D02*
X0108835Y0147038D01*
X0102835Y0147823D02*
X0099155Y0147823D01*
X0102835Y0147823D02*
X0102835Y0142443D01*
X0099155Y0142443D01*
X0099155Y0147823D01*
X0099155Y0143362D02*
X0102835Y0143362D01*
X0102835Y0144281D02*
X0099155Y0144281D01*
X0099155Y0145200D02*
X0102835Y0145200D01*
X0102835Y0146119D02*
X0099155Y0146119D01*
X0099155Y0147038D02*
X0102835Y0147038D01*
X0198355Y0146443D02*
X0202035Y0146443D01*
X0198355Y0146443D02*
X0198355Y0151823D01*
X0202035Y0151823D01*
X0202035Y0146443D01*
X0202035Y0147362D02*
X0198355Y0147362D01*
X0198355Y0148281D02*
X0202035Y0148281D01*
X0202035Y0149200D02*
X0198355Y0149200D01*
X0198355Y0150119D02*
X0202035Y0150119D01*
X0202035Y0151038D02*
X0198355Y0151038D01*
X0204355Y0146443D02*
X0208035Y0146443D01*
X0204355Y0146443D02*
X0204355Y0151823D01*
X0208035Y0151823D01*
X0208035Y0146443D01*
X0208035Y0147362D02*
X0204355Y0147362D01*
X0204355Y0148281D02*
X0208035Y0148281D01*
X0208035Y0149200D02*
X0204355Y0149200D01*
X0204355Y0150119D02*
X0208035Y0150119D01*
X0208035Y0151038D02*
X0204355Y0151038D01*
X0204355Y0167023D02*
X0208035Y0167023D01*
X0208035Y0161643D01*
X0204355Y0161643D01*
X0204355Y0167023D01*
X0204355Y0162562D02*
X0208035Y0162562D01*
X0208035Y0163481D02*
X0204355Y0163481D01*
X0204355Y0164400D02*
X0208035Y0164400D01*
X0208035Y0165319D02*
X0204355Y0165319D01*
X0204355Y0166238D02*
X0208035Y0166238D01*
X0202035Y0167023D02*
X0198355Y0167023D01*
X0202035Y0167023D02*
X0202035Y0161643D01*
X0198355Y0161643D01*
X0198355Y0167023D01*
X0198355Y0162562D02*
X0202035Y0162562D01*
X0202035Y0163481D02*
X0198355Y0163481D01*
X0198355Y0164400D02*
X0202035Y0164400D01*
X0202035Y0165319D02*
X0198355Y0165319D01*
X0198355Y0166238D02*
X0202035Y0166238D01*
X0424285Y0307223D02*
X0427965Y0307223D01*
X0427965Y0301843D01*
X0424285Y0301843D01*
X0424285Y0307223D01*
X0424285Y0302762D02*
X0427965Y0302762D01*
X0427965Y0303681D02*
X0424285Y0303681D01*
X0424285Y0304600D02*
X0427965Y0304600D01*
X0427965Y0305519D02*
X0424285Y0305519D01*
X0424285Y0306438D02*
X0427965Y0306438D01*
X0430285Y0307223D02*
X0433965Y0307223D01*
X0433965Y0301843D01*
X0430285Y0301843D01*
X0430285Y0307223D01*
X0430285Y0302762D02*
X0433965Y0302762D01*
X0433965Y0303681D02*
X0430285Y0303681D01*
X0430285Y0304600D02*
X0433965Y0304600D01*
X0433965Y0305519D02*
X0430285Y0305519D01*
X0430285Y0306438D02*
X0433965Y0306438D01*
X0436285Y0307223D02*
X0439965Y0307223D01*
X0439965Y0301843D01*
X0436285Y0301843D01*
X0436285Y0307223D01*
X0436285Y0302762D02*
X0439965Y0302762D01*
X0439965Y0303681D02*
X0436285Y0303681D01*
X0436285Y0304600D02*
X0439965Y0304600D01*
X0439965Y0305519D02*
X0436285Y0305519D01*
X0436285Y0306438D02*
X0439965Y0306438D01*
X0449585Y0307023D02*
X0453265Y0307023D01*
X0453265Y0301643D01*
X0449585Y0301643D01*
X0449585Y0307023D01*
X0449585Y0302562D02*
X0453265Y0302562D01*
X0453265Y0303481D02*
X0449585Y0303481D01*
X0449585Y0304400D02*
X0453265Y0304400D01*
X0453265Y0305319D02*
X0449585Y0305319D01*
X0449585Y0306238D02*
X0453265Y0306238D01*
X0455585Y0307023D02*
X0459265Y0307023D01*
X0459265Y0301643D01*
X0455585Y0301643D01*
X0455585Y0307023D01*
X0455585Y0302562D02*
X0459265Y0302562D01*
X0459265Y0303481D02*
X0455585Y0303481D01*
X0455585Y0304400D02*
X0459265Y0304400D01*
X0459265Y0305319D02*
X0455585Y0305319D01*
X0455585Y0306238D02*
X0459265Y0306238D01*
X0461585Y0307023D02*
X0465265Y0307023D01*
X0465265Y0301643D01*
X0461585Y0301643D01*
X0461585Y0307023D01*
X0461585Y0302562D02*
X0465265Y0302562D01*
X0465265Y0303481D02*
X0461585Y0303481D01*
X0461585Y0304400D02*
X0465265Y0304400D01*
X0465265Y0305319D02*
X0461585Y0305319D01*
X0461585Y0306238D02*
X0465265Y0306238D01*
D12*
X0169240Y0167275D02*
X0167350Y0167275D01*
X0167350Y0175463D01*
X0169240Y0175463D01*
X0169240Y0167275D01*
X0169240Y0167746D02*
X0167350Y0167746D01*
X0167350Y0168217D02*
X0169240Y0168217D01*
X0169240Y0168688D02*
X0167350Y0168688D01*
X0167350Y0169159D02*
X0169240Y0169159D01*
X0169240Y0169630D02*
X0167350Y0169630D01*
X0167350Y0170101D02*
X0169240Y0170101D01*
X0169240Y0170572D02*
X0167350Y0170572D01*
X0167350Y0171043D02*
X0169240Y0171043D01*
X0169240Y0171514D02*
X0167350Y0171514D01*
X0167350Y0171985D02*
X0169240Y0171985D01*
X0169240Y0172456D02*
X0167350Y0172456D01*
X0167350Y0172927D02*
X0169240Y0172927D01*
X0169240Y0173398D02*
X0167350Y0173398D01*
X0167350Y0173869D02*
X0169240Y0173869D01*
X0169240Y0174340D02*
X0167350Y0174340D01*
X0167350Y0174811D02*
X0169240Y0174811D01*
X0169240Y0175282D02*
X0167350Y0175282D01*
X0164240Y0167275D02*
X0162350Y0167275D01*
X0162350Y0175463D01*
X0164240Y0175463D01*
X0164240Y0167275D01*
X0164240Y0167746D02*
X0162350Y0167746D01*
X0162350Y0168217D02*
X0164240Y0168217D01*
X0164240Y0168688D02*
X0162350Y0168688D01*
X0162350Y0169159D02*
X0164240Y0169159D01*
X0164240Y0169630D02*
X0162350Y0169630D01*
X0162350Y0170101D02*
X0164240Y0170101D01*
X0164240Y0170572D02*
X0162350Y0170572D01*
X0162350Y0171043D02*
X0164240Y0171043D01*
X0164240Y0171514D02*
X0162350Y0171514D01*
X0162350Y0171985D02*
X0164240Y0171985D01*
X0164240Y0172456D02*
X0162350Y0172456D01*
X0162350Y0172927D02*
X0164240Y0172927D01*
X0164240Y0173398D02*
X0162350Y0173398D01*
X0162350Y0173869D02*
X0164240Y0173869D01*
X0164240Y0174340D02*
X0162350Y0174340D01*
X0162350Y0174811D02*
X0164240Y0174811D01*
X0164240Y0175282D02*
X0162350Y0175282D01*
X0159240Y0167275D02*
X0157350Y0167275D01*
X0157350Y0175463D01*
X0159240Y0175463D01*
X0159240Y0167275D01*
X0159240Y0167746D02*
X0157350Y0167746D01*
X0157350Y0168217D02*
X0159240Y0168217D01*
X0159240Y0168688D02*
X0157350Y0168688D01*
X0157350Y0169159D02*
X0159240Y0169159D01*
X0159240Y0169630D02*
X0157350Y0169630D01*
X0157350Y0170101D02*
X0159240Y0170101D01*
X0159240Y0170572D02*
X0157350Y0170572D01*
X0157350Y0171043D02*
X0159240Y0171043D01*
X0159240Y0171514D02*
X0157350Y0171514D01*
X0157350Y0171985D02*
X0159240Y0171985D01*
X0159240Y0172456D02*
X0157350Y0172456D01*
X0157350Y0172927D02*
X0159240Y0172927D01*
X0159240Y0173398D02*
X0157350Y0173398D01*
X0157350Y0173869D02*
X0159240Y0173869D01*
X0159240Y0174340D02*
X0157350Y0174340D01*
X0157350Y0174811D02*
X0159240Y0174811D01*
X0159240Y0175282D02*
X0157350Y0175282D01*
X0154240Y0167275D02*
X0152350Y0167275D01*
X0152350Y0175463D01*
X0154240Y0175463D01*
X0154240Y0167275D01*
X0154240Y0167746D02*
X0152350Y0167746D01*
X0152350Y0168217D02*
X0154240Y0168217D01*
X0154240Y0168688D02*
X0152350Y0168688D01*
X0152350Y0169159D02*
X0154240Y0169159D01*
X0154240Y0169630D02*
X0152350Y0169630D01*
X0152350Y0170101D02*
X0154240Y0170101D01*
X0154240Y0170572D02*
X0152350Y0170572D01*
X0152350Y0171043D02*
X0154240Y0171043D01*
X0154240Y0171514D02*
X0152350Y0171514D01*
X0152350Y0171985D02*
X0154240Y0171985D01*
X0154240Y0172456D02*
X0152350Y0172456D01*
X0152350Y0172927D02*
X0154240Y0172927D01*
X0154240Y0173398D02*
X0152350Y0173398D01*
X0152350Y0173869D02*
X0154240Y0173869D01*
X0154240Y0174340D02*
X0152350Y0174340D01*
X0152350Y0174811D02*
X0154240Y0174811D01*
X0154240Y0175282D02*
X0152350Y0175282D01*
X0152350Y0146803D02*
X0154240Y0146803D01*
X0152350Y0146803D02*
X0152350Y0154991D01*
X0154240Y0154991D01*
X0154240Y0146803D01*
X0154240Y0147274D02*
X0152350Y0147274D01*
X0152350Y0147745D02*
X0154240Y0147745D01*
X0154240Y0148216D02*
X0152350Y0148216D01*
X0152350Y0148687D02*
X0154240Y0148687D01*
X0154240Y0149158D02*
X0152350Y0149158D01*
X0152350Y0149629D02*
X0154240Y0149629D01*
X0154240Y0150100D02*
X0152350Y0150100D01*
X0152350Y0150571D02*
X0154240Y0150571D01*
X0154240Y0151042D02*
X0152350Y0151042D01*
X0152350Y0151513D02*
X0154240Y0151513D01*
X0154240Y0151984D02*
X0152350Y0151984D01*
X0152350Y0152455D02*
X0154240Y0152455D01*
X0154240Y0152926D02*
X0152350Y0152926D01*
X0152350Y0153397D02*
X0154240Y0153397D01*
X0154240Y0153868D02*
X0152350Y0153868D01*
X0152350Y0154339D02*
X0154240Y0154339D01*
X0154240Y0154810D02*
X0152350Y0154810D01*
X0157350Y0146803D02*
X0159240Y0146803D01*
X0157350Y0146803D02*
X0157350Y0154991D01*
X0159240Y0154991D01*
X0159240Y0146803D01*
X0159240Y0147274D02*
X0157350Y0147274D01*
X0157350Y0147745D02*
X0159240Y0147745D01*
X0159240Y0148216D02*
X0157350Y0148216D01*
X0157350Y0148687D02*
X0159240Y0148687D01*
X0159240Y0149158D02*
X0157350Y0149158D01*
X0157350Y0149629D02*
X0159240Y0149629D01*
X0159240Y0150100D02*
X0157350Y0150100D01*
X0157350Y0150571D02*
X0159240Y0150571D01*
X0159240Y0151042D02*
X0157350Y0151042D01*
X0157350Y0151513D02*
X0159240Y0151513D01*
X0159240Y0151984D02*
X0157350Y0151984D01*
X0157350Y0152455D02*
X0159240Y0152455D01*
X0159240Y0152926D02*
X0157350Y0152926D01*
X0157350Y0153397D02*
X0159240Y0153397D01*
X0159240Y0153868D02*
X0157350Y0153868D01*
X0157350Y0154339D02*
X0159240Y0154339D01*
X0159240Y0154810D02*
X0157350Y0154810D01*
X0162350Y0146803D02*
X0164240Y0146803D01*
X0162350Y0146803D02*
X0162350Y0154991D01*
X0164240Y0154991D01*
X0164240Y0146803D01*
X0164240Y0147274D02*
X0162350Y0147274D01*
X0162350Y0147745D02*
X0164240Y0147745D01*
X0164240Y0148216D02*
X0162350Y0148216D01*
X0162350Y0148687D02*
X0164240Y0148687D01*
X0164240Y0149158D02*
X0162350Y0149158D01*
X0162350Y0149629D02*
X0164240Y0149629D01*
X0164240Y0150100D02*
X0162350Y0150100D01*
X0162350Y0150571D02*
X0164240Y0150571D01*
X0164240Y0151042D02*
X0162350Y0151042D01*
X0162350Y0151513D02*
X0164240Y0151513D01*
X0164240Y0151984D02*
X0162350Y0151984D01*
X0162350Y0152455D02*
X0164240Y0152455D01*
X0164240Y0152926D02*
X0162350Y0152926D01*
X0162350Y0153397D02*
X0164240Y0153397D01*
X0164240Y0153868D02*
X0162350Y0153868D01*
X0162350Y0154339D02*
X0164240Y0154339D01*
X0164240Y0154810D02*
X0162350Y0154810D01*
X0167350Y0146803D02*
X0169240Y0146803D01*
X0167350Y0146803D02*
X0167350Y0154991D01*
X0169240Y0154991D01*
X0169240Y0146803D01*
X0169240Y0147274D02*
X0167350Y0147274D01*
X0167350Y0147745D02*
X0169240Y0147745D01*
X0169240Y0148216D02*
X0167350Y0148216D01*
X0167350Y0148687D02*
X0169240Y0148687D01*
X0169240Y0149158D02*
X0167350Y0149158D01*
X0167350Y0149629D02*
X0169240Y0149629D01*
X0169240Y0150100D02*
X0167350Y0150100D01*
X0167350Y0150571D02*
X0169240Y0150571D01*
X0169240Y0151042D02*
X0167350Y0151042D01*
X0167350Y0151513D02*
X0169240Y0151513D01*
X0169240Y0151984D02*
X0167350Y0151984D01*
X0167350Y0152455D02*
X0169240Y0152455D01*
X0169240Y0152926D02*
X0167350Y0152926D01*
X0167350Y0153397D02*
X0169240Y0153397D01*
X0169240Y0153868D02*
X0167350Y0153868D01*
X0167350Y0154339D02*
X0169240Y0154339D01*
X0169240Y0154810D02*
X0167350Y0154810D01*
D13*
X0168454Y0224724D02*
X0162784Y0224724D01*
X0168454Y0224724D02*
X0168454Y0213542D01*
X0162784Y0213542D01*
X0162784Y0224724D01*
X0162784Y0214958D02*
X0168454Y0214958D01*
X0168454Y0216374D02*
X0162784Y0216374D01*
X0162784Y0217790D02*
X0168454Y0217790D01*
X0168454Y0219206D02*
X0162784Y0219206D01*
X0162784Y0220622D02*
X0168454Y0220622D01*
X0168454Y0222038D02*
X0162784Y0222038D01*
X0162784Y0223454D02*
X0168454Y0223454D01*
X0146407Y0224724D02*
X0140737Y0224724D01*
X0146407Y0224724D02*
X0146407Y0213542D01*
X0140737Y0213542D01*
X0140737Y0224724D01*
X0140737Y0214958D02*
X0146407Y0214958D01*
X0146407Y0216374D02*
X0140737Y0216374D01*
X0140737Y0217790D02*
X0146407Y0217790D01*
X0146407Y0219206D02*
X0140737Y0219206D01*
X0140737Y0220622D02*
X0146407Y0220622D01*
X0146407Y0222038D02*
X0140737Y0222038D01*
X0140737Y0223454D02*
X0146407Y0223454D01*
D14*
X0147595Y0237433D02*
X0151595Y0237433D01*
X0151595Y0228433D01*
X0147595Y0228433D01*
X0147595Y0237433D01*
X0147595Y0229432D02*
X0151595Y0229432D01*
X0151595Y0230431D02*
X0147595Y0230431D01*
X0147595Y0231430D02*
X0151595Y0231430D01*
X0151595Y0232429D02*
X0147595Y0232429D01*
X0147595Y0233428D02*
X0151595Y0233428D01*
X0151595Y0234427D02*
X0147595Y0234427D01*
X0147595Y0235426D02*
X0151595Y0235426D01*
X0151595Y0236425D02*
X0147595Y0236425D01*
X0147595Y0237424D02*
X0151595Y0237424D01*
X0157595Y0237433D02*
X0161595Y0237433D01*
X0161595Y0228433D01*
X0157595Y0228433D01*
X0157595Y0237433D01*
X0157595Y0229432D02*
X0161595Y0229432D01*
X0161595Y0230431D02*
X0157595Y0230431D01*
X0157595Y0231430D02*
X0161595Y0231430D01*
X0161595Y0232429D02*
X0157595Y0232429D01*
X0157595Y0233428D02*
X0161595Y0233428D01*
X0161595Y0234427D02*
X0157595Y0234427D01*
X0157595Y0235426D02*
X0161595Y0235426D01*
X0161595Y0236425D02*
X0157595Y0236425D01*
X0157595Y0237424D02*
X0161595Y0237424D01*
M02*
