%
M48
M72
T01C0.01300
T02C0.02800
T03C0.03200
T04C0.03937
T05C0.04000
T06C0.05200
T07C0.10827
T08C0.11811
%
T01
X134295Y134233
X111695Y139733
X111295Y150733
X164795Y162733
X225195Y161333
X225195Y175333
X206195Y212133
X197195Y216933
X197395Y227733
X214195Y227733
X215395Y216933
X213795Y256933
X197395Y256933
X176995Y286533
X142195Y309333
X136995Y299333
X128995Y294533
X132595Y284533
X122195Y274933
X125395Y271333
X128995Y264133
X126595Y234133
X129395Y314533
X129395Y319333
X124595Y323333
X192995Y315333
X196595Y319733
X438195Y296533
T02
X477910Y350787
X485784Y350787
X493658Y350787
X501532Y350787
X509406Y350787
X517280Y350787
X525154Y350787
X533028Y350787
X540902Y350787
X548776Y350787
X556650Y350787
X564524Y350787
X572398Y350787
X580272Y350787
X588146Y350787
X596020Y350787
X603894Y350787
X611768Y350787
X619642Y350787
X627516Y350787
X635390Y350787
X643264Y350787
X651138Y350787
X659012Y350787
X659012Y358661
X651138Y358661
X643264Y358661
X635390Y358661
X627516Y358661
X619642Y358661
X611768Y358661
X603894Y358661
X596020Y358661
X588146Y358661
X580272Y358661
X572398Y358661
X564524Y358661
X556650Y358661
X548776Y358661
X540902Y358661
X533028Y358661
X525154Y358661
X517280Y358661
X509406Y358661
X501532Y358661
X493658Y358661
X485784Y358661
X477910Y358661
X366116Y354788
X336178Y350787
X328304Y350787
X328304Y342913
X336178Y342913
X477280Y148976
X485154Y148976
X493028Y148976
X500902Y148976
X508776Y148976
X516650Y148976
X524524Y148976
X532398Y148976
X540272Y148976
X548146Y148976
X556020Y148976
X563894Y148976
X571768Y148976
X579642Y148976
X587516Y148976
X595390Y148976
X603264Y148976
X611138Y148976
X619012Y148976
X626886Y148976
X634760Y148976
X642635Y148976
X650509Y148976
X658383Y148976
X658383Y141102
X650509Y141102
X642635Y141102
X634760Y141102
X626886Y141102
X619012Y141102
X611138Y141102
X603264Y141102
X595390Y141102
X587516Y141102
X579642Y141102
X571768Y141102
X563894Y141102
X556020Y141102
X548146Y141102
X540272Y141102
X532398Y141102
X524524Y141102
X516650Y141102
X508776Y141102
X500902Y141102
X493028Y141102
X485154Y141102
X477280Y141102
T03
X161595Y110933
X171995Y110933
X171995Y140933
X161595Y140933
X183995Y170433
X183995Y180433
X176195Y188933
X160895Y189133
X150895Y189133
X132995Y189233
X132995Y219233
X176195Y218933
X720195Y213533
X720195Y203533
X720195Y169133
X720195Y159133
X720195Y124733
X720195Y114733
X720195Y247933
X720195Y257933
X720195Y292333
X720195Y302333
X720595Y336733
X720595Y346733
X720595Y381133
X720595Y391133
X720595Y425533
X720595Y435533
T04
X649106Y440129
X639106Y440129
X629106Y440129
X619106Y440129
X609106Y440129
X599106Y440129
X589106Y440129
X579106Y440129
X569106Y440129
X559106Y440129
X549106Y440129
X539106Y440129
X529106Y440129
X519106Y440129
X509106Y440129
X499106Y440129
X489106Y440129
X479106Y440129
X469106Y440129
X459106Y440129
X449106Y440129
X439106Y440129
X429106Y440129
X429106Y450129
X439106Y450129
X449106Y450129
X459106Y450129
X469106Y450129
X479106Y450129
X489106Y450129
X499106Y450129
X509106Y450129
X519106Y450129
X529106Y450129
X539106Y450129
X549106Y450129
X559106Y450129
X569106Y450129
X579106Y450129
X589106Y450129
X599106Y450129
X609106Y450129
X619106Y450129
X629106Y450129
X639106Y450129
X649106Y450129
X649106Y260129
X639106Y260129
X629106Y260129
X619106Y260129
X609106Y260129
X599106Y260129
X589106Y260129
X579106Y260129
X569106Y260129
X559106Y260129
X549106Y260129
X539106Y260129
X529106Y260129
X519106Y260129
X509106Y260129
X499106Y260129
X489106Y260129
X479106Y260129
X469106Y260129
X459106Y260129
X449106Y260129
X439106Y260129
X429106Y260129
X429106Y250129
X439106Y250129
X449106Y250129
X459106Y250129
X469106Y250129
X479106Y250129
X489106Y250129
X499106Y250129
X509106Y250129
X519106Y250129
X529106Y250129
X539106Y250129
X549106Y250129
X559106Y250129
X569106Y250129
X579106Y250129
X589106Y250129
X599106Y250129
X609106Y250129
X619106Y250129
X629106Y250129
X639106Y250129
X649106Y250129
X597658Y104083
X587658Y104083
X587658Y94083
X597658Y94083
X577658Y94083
X567658Y94083
X557658Y94083
X547658Y94083
X537658Y94083
X527658Y94083
X517658Y94083
X507658Y94083
X497658Y94083
X487658Y94083
X477658Y94083
X467658Y94083
X457658Y94083
X447658Y94083
X437658Y94083
X427658Y94083
X417658Y94083
X407658Y94083
X407658Y104083
X417658Y104083
X427658Y104083
X437658Y104083
X447658Y104083
X457658Y104083
X467658Y104083
X477658Y104083
X487658Y104083
X497658Y104083
X507658Y104083
X517658Y104083
X527658Y104083
X537658Y104083
X547658Y104083
X557658Y104083
X567658Y104083
X577658Y104083
T05
X556972Y231133
X546972Y231133
X536972Y231133
X526972Y231133
X516972Y231133
X506972Y231133
X496972Y231133
X486972Y231133
X466972Y231133
X456972Y231133
X446972Y231133
X436972Y231133
X426972Y231133
X416972Y231133
X406972Y231133
X396972Y231133
X376972Y231133
X366972Y231133
X356972Y231133
X346972Y231133
X336972Y231133
X326972Y231133
X316972Y231133
X306972Y231133
X296972Y251133
X286972Y251133
X286972Y261133
X296972Y261133
X296972Y271133
X286972Y271133
X286972Y281133
X296972Y281133
X296972Y291133
X286972Y291133
X286972Y301133
X296972Y301133
X296972Y311133
X286972Y311133
X286972Y321133
X296972Y321133
X296972Y331133
X286972Y331133
X286972Y341133
X296972Y341133
X296972Y351133
X286972Y351133
X286972Y361133
X296972Y361133
X296972Y371133
X286972Y371133
X286972Y381133
X296972Y381133
X296972Y391133
X286972Y391133
X286972Y401133
X296972Y401133
X296972Y411133
X286972Y411133
X286972Y421133
X296972Y421133
X326972Y421133
X336972Y421133
X346972Y421133
X356972Y421133
X366972Y421133
X376972Y421133
X386972Y421133
X396972Y421133
X416972Y421133
X426972Y421133
X436972Y421133
X446972Y421133
X456972Y421133
X466972Y421133
X476972Y421133
X486972Y421133
X502972Y421133
X512972Y421133
X522972Y421133
X532972Y421133
X542972Y421133
X552972Y421133
X562972Y421133
X572972Y421133
X582972Y421133
X592972Y421133
X594972Y408133
X584972Y408133
X584972Y398133
X594972Y398133
X594972Y388133
X584972Y388133
X584972Y378133
X594972Y378133
X565972Y392333
X555972Y392333
X545972Y392333
X535972Y392333
X604972Y398133
X604972Y408133
X423972Y403133
X423972Y393133
X423972Y383133
X423972Y373133
X423972Y363133
X423972Y353133
X416972Y341133
X406972Y341133
X406972Y331133
X406972Y321133
X416972Y321133
X416972Y331133
X564772Y289133
X574772Y289133
X574772Y279133
X564772Y279133
X564772Y269133
X574772Y269133
T06
X574195Y176533
X554995Y176533
X535795Y176533
X516595Y176533
X497395Y176533
X478195Y176533
X458995Y176533
X439795Y176533
X185795Y229333
X185795Y241733
X185795Y254133
X185795Y266533
X185795Y278933
X167395Y284933
X167395Y272533
X177395Y329333
T07
X388375Y291954
X616721Y291954
X616721Y99040
X388375Y99040
T08
X387044Y145550
X286972Y231133
X406972Y251133
X409106Y267629
X387044Y354212
X406972Y361133
X311972Y421133
X409106Y432629
X606972Y421133
X666606Y445129
X676414Y354212
X666606Y255129
X611972Y231133
X676414Y145550
M30
