G75*
%MOIN*%
%OFA0B0*%
%FSLAX25Y25*%
%IPPOS*%
%LPD*%
%AMOC8*
5,1,8,0,0,1.08239X$1,22.5*
%
%ADD10C,0.02094*%
%ADD11C,0.10360*%
%ADD12OC8,0.10360*%
%ADD13C,0.16535*%
%ADD14R,0.06720X0.06720*%
%ADD15C,0.06720*%
%ADD16R,0.08312X0.08312*%
%ADD17C,0.08312*%
%ADD18C,0.01288*%
%ADD19C,0.00661*%
%ADD20C,0.01984*%
%ADD21R,0.00600X0.07200*%
%ADD22OC8,0.07280*%
%ADD23C,0.01400*%
%ADD24C,0.09240*%
%ADD25C,0.15157*%
%ADD26OC8,0.11900*%
%ADD27C,0.00800*%
%ADD28C,0.04060*%
D10*
X0088053Y0215160D02*
X0118951Y0215160D01*
X0088053Y0215160D02*
X0088053Y0223538D01*
X0118951Y0223538D01*
X0118951Y0215160D01*
X0118951Y0217253D02*
X0088053Y0217253D01*
X0088053Y0219346D02*
X0118951Y0219346D01*
X0118951Y0221439D02*
X0088053Y0221439D01*
X0088053Y0223532D02*
X0118951Y0223532D01*
X0118951Y0225160D02*
X0088053Y0225160D01*
X0088053Y0233538D01*
X0118951Y0233538D01*
X0118951Y0225160D01*
X0118951Y0227253D02*
X0088053Y0227253D01*
X0088053Y0229346D02*
X0118951Y0229346D01*
X0118951Y0231439D02*
X0088053Y0231439D01*
X0088053Y0233532D02*
X0118951Y0233532D01*
X0118951Y0235160D02*
X0088053Y0235160D01*
X0088053Y0243538D01*
X0118951Y0243538D01*
X0118951Y0235160D01*
X0118951Y0237253D02*
X0088053Y0237253D01*
X0088053Y0239346D02*
X0118951Y0239346D01*
X0118951Y0241439D02*
X0088053Y0241439D01*
X0088053Y0243532D02*
X0118951Y0243532D01*
X0118951Y0245160D02*
X0088053Y0245160D01*
X0088053Y0253538D01*
X0118951Y0253538D01*
X0118951Y0245160D01*
X0118951Y0247253D02*
X0088053Y0247253D01*
X0088053Y0249346D02*
X0118951Y0249346D01*
X0118951Y0251439D02*
X0088053Y0251439D01*
X0088053Y0253532D02*
X0118951Y0253532D01*
X0118951Y0255160D02*
X0088053Y0255160D01*
X0088053Y0263538D01*
X0118951Y0263538D01*
X0118951Y0255160D01*
X0118951Y0257253D02*
X0088053Y0257253D01*
X0088053Y0259346D02*
X0118951Y0259346D01*
X0118951Y0261439D02*
X0088053Y0261439D01*
X0088053Y0263532D02*
X0118951Y0263532D01*
X0118951Y0265160D02*
X0088053Y0265160D01*
X0088053Y0273538D01*
X0118951Y0273538D01*
X0118951Y0265160D01*
X0118951Y0267253D02*
X0088053Y0267253D01*
X0088053Y0269346D02*
X0118951Y0269346D01*
X0118951Y0271439D02*
X0088053Y0271439D01*
X0088053Y0273532D02*
X0118951Y0273532D01*
X0118951Y0275160D02*
X0088053Y0275160D01*
X0088053Y0283538D01*
X0118951Y0283538D01*
X0118951Y0275160D01*
X0118951Y0277253D02*
X0088053Y0277253D01*
X0088053Y0279346D02*
X0118951Y0279346D01*
X0118951Y0281439D02*
X0088053Y0281439D01*
X0088053Y0283532D02*
X0118951Y0283532D01*
X0118951Y0285160D02*
X0088053Y0285160D01*
X0088053Y0293538D01*
X0118951Y0293538D01*
X0118951Y0285160D01*
X0118951Y0287253D02*
X0088053Y0287253D01*
X0088053Y0289346D02*
X0118951Y0289346D01*
X0118951Y0291439D02*
X0088053Y0291439D01*
X0088053Y0293532D02*
X0118951Y0293532D01*
X0118951Y0295160D02*
X0088053Y0295160D01*
X0088053Y0303538D01*
X0118951Y0303538D01*
X0118951Y0295160D01*
X0118951Y0297253D02*
X0088053Y0297253D01*
X0088053Y0299346D02*
X0118951Y0299346D01*
X0118951Y0301439D02*
X0088053Y0301439D01*
X0088053Y0303532D02*
X0118951Y0303532D01*
X0118951Y0305160D02*
X0088053Y0305160D01*
X0088053Y0313538D01*
X0118951Y0313538D01*
X0118951Y0305160D01*
X0118951Y0307253D02*
X0088053Y0307253D01*
X0088053Y0309346D02*
X0118951Y0309346D01*
X0118951Y0311439D02*
X0088053Y0311439D01*
X0088053Y0313532D02*
X0118951Y0313532D01*
X0118951Y0315160D02*
X0088053Y0315160D01*
X0088053Y0323538D01*
X0118951Y0323538D01*
X0118951Y0315160D01*
X0118951Y0317253D02*
X0088053Y0317253D01*
X0088053Y0319346D02*
X0118951Y0319346D01*
X0118951Y0321439D02*
X0088053Y0321439D01*
X0088053Y0323532D02*
X0118951Y0323532D01*
X0118951Y0325160D02*
X0088053Y0325160D01*
X0088053Y0333538D01*
X0118951Y0333538D01*
X0118951Y0325160D01*
X0118951Y0327253D02*
X0088053Y0327253D01*
X0088053Y0329346D02*
X0118951Y0329346D01*
X0118951Y0331439D02*
X0088053Y0331439D01*
X0088053Y0333532D02*
X0118951Y0333532D01*
D11*
X0286972Y0251133D03*
X0296972Y0251133D03*
X0306972Y0231133D03*
X0316972Y0231133D03*
X0326972Y0231133D03*
X0336972Y0231133D03*
X0346972Y0231133D03*
X0356972Y0231133D03*
X0366972Y0231133D03*
X0376972Y0231133D03*
X0396972Y0231133D03*
X0406972Y0231133D03*
X0416972Y0231133D03*
X0426972Y0231133D03*
X0436972Y0231133D03*
X0446972Y0231133D03*
X0456972Y0231133D03*
X0466972Y0231133D03*
X0486972Y0231133D03*
X0496972Y0231133D03*
X0506972Y0231133D03*
X0516972Y0231133D03*
X0526972Y0231133D03*
X0536972Y0231133D03*
X0546972Y0231133D03*
X0556972Y0231133D03*
X0423972Y0353133D03*
X0423972Y0363133D03*
X0423972Y0373133D03*
X0423972Y0383133D03*
X0423972Y0393133D03*
X0423972Y0403133D03*
X0426972Y0421133D03*
X0416972Y0421133D03*
X0436972Y0421133D03*
X0446972Y0421133D03*
X0456972Y0421133D03*
X0466972Y0421133D03*
X0476972Y0421133D03*
X0486972Y0421133D03*
X0502972Y0421133D03*
X0512972Y0421133D03*
X0522972Y0421133D03*
X0532972Y0421133D03*
X0542972Y0421133D03*
X0552972Y0421133D03*
X0562972Y0421133D03*
X0572972Y0421133D03*
X0582972Y0421133D03*
X0592972Y0421133D03*
X0565972Y0392333D03*
X0555972Y0392333D03*
X0545972Y0392333D03*
X0535972Y0392333D03*
X0396972Y0421133D03*
X0386972Y0421133D03*
X0376972Y0421133D03*
X0366972Y0421133D03*
X0356972Y0421133D03*
X0346972Y0421133D03*
X0336972Y0421133D03*
X0326972Y0421133D03*
X0296972Y0421133D03*
X0286972Y0421133D03*
D12*
X0286972Y0411133D03*
X0296972Y0411133D03*
X0296972Y0401133D03*
X0286972Y0401133D03*
X0286972Y0391133D03*
X0296972Y0391133D03*
X0296972Y0381133D03*
X0286972Y0381133D03*
X0286972Y0371133D03*
X0296972Y0371133D03*
X0296972Y0361133D03*
X0286972Y0361133D03*
X0286972Y0351133D03*
X0296972Y0351133D03*
X0296972Y0341133D03*
X0286972Y0341133D03*
X0286972Y0331133D03*
X0296972Y0331133D03*
X0296972Y0321133D03*
X0286972Y0321133D03*
X0286972Y0311133D03*
X0296972Y0311133D03*
X0296972Y0301133D03*
X0286972Y0301133D03*
X0286972Y0291133D03*
X0296972Y0291133D03*
X0296972Y0281133D03*
X0286972Y0281133D03*
X0286972Y0271133D03*
X0296972Y0271133D03*
X0296972Y0261133D03*
X0286972Y0261133D03*
X0406972Y0321133D03*
X0406972Y0331133D03*
X0406972Y0341133D03*
X0416972Y0341133D03*
X0416972Y0331133D03*
X0416972Y0321133D03*
X0564772Y0289133D03*
X0574772Y0289133D03*
X0574772Y0279133D03*
X0564772Y0279133D03*
X0564772Y0269133D03*
X0574772Y0269133D03*
X0584972Y0378133D03*
X0594972Y0378133D03*
X0594972Y0388133D03*
X0584972Y0388133D03*
X0584972Y0398133D03*
X0594972Y0398133D03*
X0594972Y0408133D03*
X0584972Y0408133D03*
X0604972Y0408133D03*
X0604972Y0398133D03*
D13*
X0606972Y0421133D03*
X0666606Y0445129D03*
X0676414Y0354212D03*
X0666606Y0255129D03*
X0611972Y0231133D03*
X0676414Y0145550D03*
X0409106Y0267629D03*
X0406972Y0251133D03*
X0286972Y0231133D03*
X0387044Y0145550D03*
X0387044Y0354212D03*
X0406972Y0361133D03*
X0311972Y0421133D03*
X0409106Y0432629D03*
D14*
X0366116Y0354788D03*
X0328304Y0342913D03*
X0477910Y0350787D03*
X0658383Y0148976D03*
D15*
X0650509Y0148976D03*
X0642635Y0148976D03*
X0634760Y0148976D03*
X0626886Y0148976D03*
X0619012Y0148976D03*
X0611138Y0148976D03*
X0603264Y0148976D03*
X0595390Y0148976D03*
X0587516Y0148976D03*
X0579642Y0148976D03*
X0571768Y0148976D03*
X0563894Y0148976D03*
X0556020Y0148976D03*
X0548146Y0148976D03*
X0540272Y0148976D03*
X0532398Y0148976D03*
X0524524Y0148976D03*
X0516650Y0148976D03*
X0508776Y0148976D03*
X0500902Y0148976D03*
X0493028Y0148976D03*
X0485154Y0148976D03*
X0477280Y0148976D03*
X0477280Y0141102D03*
X0485154Y0141102D03*
X0493028Y0141102D03*
X0500902Y0141102D03*
X0508776Y0141102D03*
X0516650Y0141102D03*
X0524524Y0141102D03*
X0532398Y0141102D03*
X0540272Y0141102D03*
X0548146Y0141102D03*
X0556020Y0141102D03*
X0563894Y0141102D03*
X0571768Y0141102D03*
X0579642Y0141102D03*
X0587516Y0141102D03*
X0595390Y0141102D03*
X0603264Y0141102D03*
X0611138Y0141102D03*
X0619012Y0141102D03*
X0626886Y0141102D03*
X0634760Y0141102D03*
X0642635Y0141102D03*
X0650509Y0141102D03*
X0658383Y0141102D03*
X0336178Y0342913D03*
X0336178Y0350787D03*
X0328304Y0350787D03*
X0477910Y0358661D03*
X0485784Y0358661D03*
X0493658Y0358661D03*
X0501532Y0358661D03*
X0509406Y0358661D03*
X0517280Y0358661D03*
X0525154Y0358661D03*
X0533028Y0358661D03*
X0540902Y0358661D03*
X0548776Y0358661D03*
X0556650Y0358661D03*
X0564524Y0358661D03*
X0572398Y0358661D03*
X0580272Y0358661D03*
X0588146Y0358661D03*
X0596020Y0358661D03*
X0603894Y0358661D03*
X0611768Y0358661D03*
X0619642Y0358661D03*
X0627516Y0358661D03*
X0635390Y0358661D03*
X0643264Y0358661D03*
X0651138Y0358661D03*
X0659012Y0358661D03*
X0659012Y0350787D03*
X0651138Y0350787D03*
X0643264Y0350787D03*
X0635390Y0350787D03*
X0627516Y0350787D03*
X0619642Y0350787D03*
X0611768Y0350787D03*
X0603894Y0350787D03*
X0596020Y0350787D03*
X0588146Y0350787D03*
X0580272Y0350787D03*
X0572398Y0350787D03*
X0564524Y0350787D03*
X0556650Y0350787D03*
X0548776Y0350787D03*
X0540902Y0350787D03*
X0533028Y0350787D03*
X0525154Y0350787D03*
X0517280Y0350787D03*
X0509406Y0350787D03*
X0501532Y0350787D03*
X0493658Y0350787D03*
X0485784Y0350787D03*
D16*
X0649106Y0440129D03*
X0649106Y0250129D03*
X0407658Y0104083D03*
D17*
X0417658Y0104083D03*
X0427658Y0104083D03*
X0437658Y0104083D03*
X0437658Y0094083D03*
X0447658Y0094083D03*
X0457658Y0094083D03*
X0467658Y0094083D03*
X0477658Y0094083D03*
X0487658Y0094083D03*
X0497658Y0094083D03*
X0507658Y0094083D03*
X0517658Y0094083D03*
X0527658Y0094083D03*
X0537658Y0094083D03*
X0547658Y0094083D03*
X0557658Y0094083D03*
X0567658Y0094083D03*
X0577658Y0094083D03*
X0587658Y0094083D03*
X0597658Y0094083D03*
X0597658Y0104083D03*
X0587658Y0104083D03*
X0577658Y0104083D03*
X0567658Y0104083D03*
X0557658Y0104083D03*
X0547658Y0104083D03*
X0537658Y0104083D03*
X0527658Y0104083D03*
X0517658Y0104083D03*
X0507658Y0104083D03*
X0497658Y0104083D03*
X0487658Y0104083D03*
X0477658Y0104083D03*
X0467658Y0104083D03*
X0457658Y0104083D03*
X0447658Y0104083D03*
X0417658Y0094083D03*
X0429106Y0250129D03*
X0429106Y0260129D03*
X0439106Y0260129D03*
X0449106Y0260129D03*
X0459106Y0260129D03*
X0469106Y0260129D03*
X0469106Y0250129D03*
X0459106Y0250129D03*
X0449106Y0250129D03*
X0439106Y0250129D03*
X0479106Y0250129D03*
X0489106Y0250129D03*
X0499106Y0250129D03*
X0499106Y0260129D03*
X0489106Y0260129D03*
X0479106Y0260129D03*
X0509106Y0260129D03*
X0519106Y0260129D03*
X0529106Y0260129D03*
X0539106Y0260129D03*
X0539106Y0250129D03*
X0529106Y0250129D03*
X0519106Y0250129D03*
X0509106Y0250129D03*
X0549106Y0250129D03*
X0559106Y0250129D03*
X0569106Y0250129D03*
X0579106Y0250129D03*
X0579106Y0260129D03*
X0569106Y0260129D03*
X0559106Y0260129D03*
X0549106Y0260129D03*
X0589106Y0260129D03*
X0599106Y0260129D03*
X0609106Y0260129D03*
X0609106Y0250129D03*
X0599106Y0250129D03*
X0589106Y0250129D03*
X0619106Y0250129D03*
X0629106Y0250129D03*
X0639106Y0250129D03*
X0639106Y0260129D03*
X0629106Y0260129D03*
X0619106Y0260129D03*
X0649106Y0260129D03*
X0639106Y0440129D03*
X0629106Y0440129D03*
X0619106Y0440129D03*
X0609106Y0440129D03*
X0599106Y0440129D03*
X0589106Y0440129D03*
X0579106Y0440129D03*
X0569106Y0440129D03*
X0559106Y0440129D03*
X0549106Y0440129D03*
X0539106Y0440129D03*
X0529106Y0440129D03*
X0519106Y0440129D03*
X0509106Y0440129D03*
X0499106Y0440129D03*
X0489106Y0440129D03*
X0479106Y0440129D03*
X0469106Y0440129D03*
X0459106Y0440129D03*
X0449106Y0440129D03*
X0439106Y0440129D03*
X0429106Y0440129D03*
X0429106Y0450129D03*
X0439106Y0450129D03*
X0449106Y0450129D03*
X0459106Y0450129D03*
X0469106Y0450129D03*
X0479106Y0450129D03*
X0489106Y0450129D03*
X0499106Y0450129D03*
X0509106Y0450129D03*
X0519106Y0450129D03*
X0529106Y0450129D03*
X0539106Y0450129D03*
X0549106Y0450129D03*
X0559106Y0450129D03*
X0569106Y0450129D03*
X0579106Y0450129D03*
X0589106Y0450129D03*
X0599106Y0450129D03*
X0609106Y0450129D03*
X0619106Y0450129D03*
X0629106Y0450129D03*
X0639106Y0450129D03*
X0649106Y0450129D03*
D18*
X0466001Y0307759D02*
X0460849Y0307759D01*
X0466001Y0307759D02*
X0466001Y0300907D01*
X0460849Y0300907D01*
X0460849Y0307759D01*
X0460849Y0302194D02*
X0466001Y0302194D01*
X0466001Y0303481D02*
X0460849Y0303481D01*
X0460849Y0304768D02*
X0466001Y0304768D01*
X0466001Y0306055D02*
X0460849Y0306055D01*
X0460849Y0307342D02*
X0466001Y0307342D01*
X0460001Y0307759D02*
X0454849Y0307759D01*
X0460001Y0307759D02*
X0460001Y0300907D01*
X0454849Y0300907D01*
X0454849Y0307759D01*
X0454849Y0302194D02*
X0460001Y0302194D01*
X0460001Y0303481D02*
X0454849Y0303481D01*
X0454849Y0304768D02*
X0460001Y0304768D01*
X0460001Y0306055D02*
X0454849Y0306055D01*
X0454849Y0307342D02*
X0460001Y0307342D01*
X0454001Y0307759D02*
X0448849Y0307759D01*
X0454001Y0307759D02*
X0454001Y0300907D01*
X0448849Y0300907D01*
X0448849Y0307759D01*
X0448849Y0302194D02*
X0454001Y0302194D01*
X0454001Y0303481D02*
X0448849Y0303481D01*
X0448849Y0304768D02*
X0454001Y0304768D01*
X0454001Y0306055D02*
X0448849Y0306055D01*
X0448849Y0307342D02*
X0454001Y0307342D01*
X0440701Y0307959D02*
X0435549Y0307959D01*
X0440701Y0307959D02*
X0440701Y0301107D01*
X0435549Y0301107D01*
X0435549Y0307959D01*
X0435549Y0302394D02*
X0440701Y0302394D01*
X0440701Y0303681D02*
X0435549Y0303681D01*
X0435549Y0304968D02*
X0440701Y0304968D01*
X0440701Y0306255D02*
X0435549Y0306255D01*
X0435549Y0307542D02*
X0440701Y0307542D01*
X0434701Y0307959D02*
X0429549Y0307959D01*
X0434701Y0307959D02*
X0434701Y0301107D01*
X0429549Y0301107D01*
X0429549Y0307959D01*
X0429549Y0302394D02*
X0434701Y0302394D01*
X0434701Y0303681D02*
X0429549Y0303681D01*
X0429549Y0304968D02*
X0434701Y0304968D01*
X0434701Y0306255D02*
X0429549Y0306255D01*
X0429549Y0307542D02*
X0434701Y0307542D01*
X0428701Y0307959D02*
X0423549Y0307959D01*
X0428701Y0307959D02*
X0428701Y0301107D01*
X0423549Y0301107D01*
X0423549Y0307959D01*
X0423549Y0302394D02*
X0428701Y0302394D01*
X0428701Y0303681D02*
X0423549Y0303681D01*
X0423549Y0304968D02*
X0428701Y0304968D01*
X0428701Y0306255D02*
X0423549Y0306255D01*
X0423549Y0307542D02*
X0428701Y0307542D01*
X0208771Y0167759D02*
X0203619Y0167759D01*
X0208771Y0167759D02*
X0208771Y0160907D01*
X0203619Y0160907D01*
X0203619Y0167759D01*
X0203619Y0162194D02*
X0208771Y0162194D01*
X0208771Y0163481D02*
X0203619Y0163481D01*
X0203619Y0164768D02*
X0208771Y0164768D01*
X0208771Y0166055D02*
X0203619Y0166055D01*
X0203619Y0167342D02*
X0208771Y0167342D01*
X0202771Y0167759D02*
X0197619Y0167759D01*
X0202771Y0167759D02*
X0202771Y0160907D01*
X0197619Y0160907D01*
X0197619Y0167759D01*
X0197619Y0162194D02*
X0202771Y0162194D01*
X0202771Y0163481D02*
X0197619Y0163481D01*
X0197619Y0164768D02*
X0202771Y0164768D01*
X0202771Y0166055D02*
X0197619Y0166055D01*
X0197619Y0167342D02*
X0202771Y0167342D01*
X0202771Y0145707D02*
X0197619Y0145707D01*
X0197619Y0152559D01*
X0202771Y0152559D01*
X0202771Y0145707D01*
X0202771Y0146994D02*
X0197619Y0146994D01*
X0197619Y0148281D02*
X0202771Y0148281D01*
X0202771Y0149568D02*
X0197619Y0149568D01*
X0197619Y0150855D02*
X0202771Y0150855D01*
X0202771Y0152142D02*
X0197619Y0152142D01*
X0203619Y0145707D02*
X0208771Y0145707D01*
X0203619Y0145707D02*
X0203619Y0152559D01*
X0208771Y0152559D01*
X0208771Y0145707D01*
X0208771Y0146994D02*
X0203619Y0146994D01*
X0203619Y0148281D02*
X0208771Y0148281D01*
X0208771Y0149568D02*
X0203619Y0149568D01*
X0203619Y0150855D02*
X0208771Y0150855D01*
X0208771Y0152142D02*
X0203619Y0152142D01*
X0124771Y0159759D02*
X0119619Y0159759D01*
X0124771Y0159759D02*
X0124771Y0152907D01*
X0119619Y0152907D01*
X0119619Y0159759D01*
X0119619Y0154194D02*
X0124771Y0154194D01*
X0124771Y0155481D02*
X0119619Y0155481D01*
X0119619Y0156768D02*
X0124771Y0156768D01*
X0124771Y0158055D02*
X0119619Y0158055D01*
X0119619Y0159342D02*
X0124771Y0159342D01*
X0118771Y0159759D02*
X0113619Y0159759D01*
X0118771Y0159759D02*
X0118771Y0152907D01*
X0113619Y0152907D01*
X0113619Y0159759D01*
X0113619Y0154194D02*
X0118771Y0154194D01*
X0118771Y0155481D02*
X0113619Y0155481D01*
X0113619Y0156768D02*
X0118771Y0156768D01*
X0118771Y0158055D02*
X0113619Y0158055D01*
X0113619Y0159342D02*
X0118771Y0159342D01*
X0118771Y0170959D02*
X0113619Y0170959D01*
X0118771Y0170959D02*
X0118771Y0164107D01*
X0113619Y0164107D01*
X0113619Y0170959D01*
X0113619Y0165394D02*
X0118771Y0165394D01*
X0118771Y0166681D02*
X0113619Y0166681D01*
X0113619Y0167968D02*
X0118771Y0167968D01*
X0118771Y0169255D02*
X0113619Y0169255D01*
X0113619Y0170542D02*
X0118771Y0170542D01*
X0119619Y0170959D02*
X0124771Y0170959D01*
X0124771Y0164107D01*
X0119619Y0164107D01*
X0119619Y0170959D01*
X0119619Y0165394D02*
X0124771Y0165394D01*
X0124771Y0166681D02*
X0119619Y0166681D01*
X0119619Y0167968D02*
X0124771Y0167968D01*
X0124771Y0169255D02*
X0119619Y0169255D01*
X0119619Y0170542D02*
X0124771Y0170542D01*
X0109571Y0170959D02*
X0104419Y0170959D01*
X0109571Y0170959D02*
X0109571Y0164107D01*
X0104419Y0164107D01*
X0104419Y0170959D01*
X0104419Y0165394D02*
X0109571Y0165394D01*
X0109571Y0166681D02*
X0104419Y0166681D01*
X0104419Y0167968D02*
X0109571Y0167968D01*
X0109571Y0169255D02*
X0104419Y0169255D01*
X0104419Y0170542D02*
X0109571Y0170542D01*
X0103571Y0170959D02*
X0098419Y0170959D01*
X0103571Y0170959D02*
X0103571Y0164107D01*
X0098419Y0164107D01*
X0098419Y0170959D01*
X0098419Y0165394D02*
X0103571Y0165394D01*
X0103571Y0166681D02*
X0098419Y0166681D01*
X0098419Y0167968D02*
X0103571Y0167968D01*
X0103571Y0169255D02*
X0098419Y0169255D01*
X0098419Y0170542D02*
X0103571Y0170542D01*
X0103571Y0159759D02*
X0098419Y0159759D01*
X0103571Y0159759D02*
X0103571Y0152907D01*
X0098419Y0152907D01*
X0098419Y0159759D01*
X0098419Y0154194D02*
X0103571Y0154194D01*
X0103571Y0155481D02*
X0098419Y0155481D01*
X0098419Y0156768D02*
X0103571Y0156768D01*
X0103571Y0158055D02*
X0098419Y0158055D01*
X0098419Y0159342D02*
X0103571Y0159342D01*
X0104419Y0159759D02*
X0109571Y0159759D01*
X0109571Y0152907D01*
X0104419Y0152907D01*
X0104419Y0159759D01*
X0104419Y0154194D02*
X0109571Y0154194D01*
X0109571Y0155481D02*
X0104419Y0155481D01*
X0104419Y0156768D02*
X0109571Y0156768D01*
X0109571Y0158055D02*
X0104419Y0158055D01*
X0104419Y0159342D02*
X0109571Y0159342D01*
X0109571Y0148559D02*
X0104419Y0148559D01*
X0109571Y0148559D02*
X0109571Y0141707D01*
X0104419Y0141707D01*
X0104419Y0148559D01*
X0104419Y0142994D02*
X0109571Y0142994D01*
X0109571Y0144281D02*
X0104419Y0144281D01*
X0104419Y0145568D02*
X0109571Y0145568D01*
X0109571Y0146855D02*
X0104419Y0146855D01*
X0104419Y0148142D02*
X0109571Y0148142D01*
X0113619Y0148559D02*
X0118771Y0148559D01*
X0118771Y0141707D01*
X0113619Y0141707D01*
X0113619Y0148559D01*
X0113619Y0142994D02*
X0118771Y0142994D01*
X0118771Y0144281D02*
X0113619Y0144281D01*
X0113619Y0145568D02*
X0118771Y0145568D01*
X0118771Y0146855D02*
X0113619Y0146855D01*
X0113619Y0148142D02*
X0118771Y0148142D01*
X0119619Y0148559D02*
X0124771Y0148559D01*
X0124771Y0141707D01*
X0119619Y0141707D01*
X0119619Y0148559D01*
X0119619Y0142994D02*
X0124771Y0142994D01*
X0124771Y0144281D02*
X0119619Y0144281D01*
X0119619Y0145568D02*
X0124771Y0145568D01*
X0124771Y0146855D02*
X0119619Y0146855D01*
X0119619Y0148142D02*
X0124771Y0148142D01*
X0124771Y0137359D02*
X0119619Y0137359D01*
X0124771Y0137359D02*
X0124771Y0130507D01*
X0119619Y0130507D01*
X0119619Y0137359D01*
X0119619Y0131794D02*
X0124771Y0131794D01*
X0124771Y0133081D02*
X0119619Y0133081D01*
X0119619Y0134368D02*
X0124771Y0134368D01*
X0124771Y0135655D02*
X0119619Y0135655D01*
X0119619Y0136942D02*
X0124771Y0136942D01*
X0118771Y0137359D02*
X0113619Y0137359D01*
X0118771Y0137359D02*
X0118771Y0130507D01*
X0113619Y0130507D01*
X0113619Y0137359D01*
X0113619Y0131794D02*
X0118771Y0131794D01*
X0118771Y0133081D02*
X0113619Y0133081D01*
X0113619Y0134368D02*
X0118771Y0134368D01*
X0118771Y0135655D02*
X0113619Y0135655D01*
X0113619Y0136942D02*
X0118771Y0136942D01*
X0109571Y0137359D02*
X0104419Y0137359D01*
X0109571Y0137359D02*
X0109571Y0130507D01*
X0104419Y0130507D01*
X0104419Y0137359D01*
X0104419Y0131794D02*
X0109571Y0131794D01*
X0109571Y0133081D02*
X0104419Y0133081D01*
X0104419Y0134368D02*
X0109571Y0134368D01*
X0109571Y0135655D02*
X0104419Y0135655D01*
X0104419Y0136942D02*
X0109571Y0136942D01*
X0103571Y0137359D02*
X0098419Y0137359D01*
X0103571Y0137359D02*
X0103571Y0130507D01*
X0098419Y0130507D01*
X0098419Y0137359D01*
X0098419Y0131794D02*
X0103571Y0131794D01*
X0103571Y0133081D02*
X0098419Y0133081D01*
X0098419Y0134368D02*
X0103571Y0134368D01*
X0103571Y0135655D02*
X0098419Y0135655D01*
X0098419Y0136942D02*
X0103571Y0136942D01*
X0103571Y0148559D02*
X0098419Y0148559D01*
X0103571Y0148559D02*
X0103571Y0141707D01*
X0098419Y0141707D01*
X0098419Y0148559D01*
X0098419Y0142994D02*
X0103571Y0142994D01*
X0103571Y0144281D02*
X0098419Y0144281D01*
X0098419Y0145568D02*
X0103571Y0145568D01*
X0103571Y0146855D02*
X0098419Y0146855D01*
X0098419Y0148142D02*
X0103571Y0148142D01*
D19*
X0151972Y0146424D02*
X0154618Y0146424D01*
X0151972Y0146424D02*
X0151972Y0155370D01*
X0154618Y0155370D01*
X0154618Y0146424D01*
X0154618Y0147084D02*
X0151972Y0147084D01*
X0151972Y0147744D02*
X0154618Y0147744D01*
X0154618Y0148404D02*
X0151972Y0148404D01*
X0151972Y0149064D02*
X0154618Y0149064D01*
X0154618Y0149724D02*
X0151972Y0149724D01*
X0151972Y0150384D02*
X0154618Y0150384D01*
X0154618Y0151044D02*
X0151972Y0151044D01*
X0151972Y0151704D02*
X0154618Y0151704D01*
X0154618Y0152364D02*
X0151972Y0152364D01*
X0151972Y0153024D02*
X0154618Y0153024D01*
X0154618Y0153684D02*
X0151972Y0153684D01*
X0151972Y0154344D02*
X0154618Y0154344D01*
X0154618Y0155004D02*
X0151972Y0155004D01*
X0156972Y0146424D02*
X0159618Y0146424D01*
X0156972Y0146424D02*
X0156972Y0155370D01*
X0159618Y0155370D01*
X0159618Y0146424D01*
X0159618Y0147084D02*
X0156972Y0147084D01*
X0156972Y0147744D02*
X0159618Y0147744D01*
X0159618Y0148404D02*
X0156972Y0148404D01*
X0156972Y0149064D02*
X0159618Y0149064D01*
X0159618Y0149724D02*
X0156972Y0149724D01*
X0156972Y0150384D02*
X0159618Y0150384D01*
X0159618Y0151044D02*
X0156972Y0151044D01*
X0156972Y0151704D02*
X0159618Y0151704D01*
X0159618Y0152364D02*
X0156972Y0152364D01*
X0156972Y0153024D02*
X0159618Y0153024D01*
X0159618Y0153684D02*
X0156972Y0153684D01*
X0156972Y0154344D02*
X0159618Y0154344D01*
X0159618Y0155004D02*
X0156972Y0155004D01*
X0161972Y0146424D02*
X0164618Y0146424D01*
X0161972Y0146424D02*
X0161972Y0155370D01*
X0164618Y0155370D01*
X0164618Y0146424D01*
X0164618Y0147084D02*
X0161972Y0147084D01*
X0161972Y0147744D02*
X0164618Y0147744D01*
X0164618Y0148404D02*
X0161972Y0148404D01*
X0161972Y0149064D02*
X0164618Y0149064D01*
X0164618Y0149724D02*
X0161972Y0149724D01*
X0161972Y0150384D02*
X0164618Y0150384D01*
X0164618Y0151044D02*
X0161972Y0151044D01*
X0161972Y0151704D02*
X0164618Y0151704D01*
X0164618Y0152364D02*
X0161972Y0152364D01*
X0161972Y0153024D02*
X0164618Y0153024D01*
X0164618Y0153684D02*
X0161972Y0153684D01*
X0161972Y0154344D02*
X0164618Y0154344D01*
X0164618Y0155004D02*
X0161972Y0155004D01*
X0166972Y0146424D02*
X0169618Y0146424D01*
X0166972Y0146424D02*
X0166972Y0155370D01*
X0169618Y0155370D01*
X0169618Y0146424D01*
X0169618Y0147084D02*
X0166972Y0147084D01*
X0166972Y0147744D02*
X0169618Y0147744D01*
X0169618Y0148404D02*
X0166972Y0148404D01*
X0166972Y0149064D02*
X0169618Y0149064D01*
X0169618Y0149724D02*
X0166972Y0149724D01*
X0166972Y0150384D02*
X0169618Y0150384D01*
X0169618Y0151044D02*
X0166972Y0151044D01*
X0166972Y0151704D02*
X0169618Y0151704D01*
X0169618Y0152364D02*
X0166972Y0152364D01*
X0166972Y0153024D02*
X0169618Y0153024D01*
X0169618Y0153684D02*
X0166972Y0153684D01*
X0166972Y0154344D02*
X0169618Y0154344D01*
X0169618Y0155004D02*
X0166972Y0155004D01*
X0166972Y0166896D02*
X0169618Y0166896D01*
X0166972Y0166896D02*
X0166972Y0175842D01*
X0169618Y0175842D01*
X0169618Y0166896D01*
X0169618Y0167556D02*
X0166972Y0167556D01*
X0166972Y0168216D02*
X0169618Y0168216D01*
X0169618Y0168876D02*
X0166972Y0168876D01*
X0166972Y0169536D02*
X0169618Y0169536D01*
X0169618Y0170196D02*
X0166972Y0170196D01*
X0166972Y0170856D02*
X0169618Y0170856D01*
X0169618Y0171516D02*
X0166972Y0171516D01*
X0166972Y0172176D02*
X0169618Y0172176D01*
X0169618Y0172836D02*
X0166972Y0172836D01*
X0166972Y0173496D02*
X0169618Y0173496D01*
X0169618Y0174156D02*
X0166972Y0174156D01*
X0166972Y0174816D02*
X0169618Y0174816D01*
X0169618Y0175476D02*
X0166972Y0175476D01*
X0164618Y0166896D02*
X0161972Y0166896D01*
X0161972Y0175842D01*
X0164618Y0175842D01*
X0164618Y0166896D01*
X0164618Y0167556D02*
X0161972Y0167556D01*
X0161972Y0168216D02*
X0164618Y0168216D01*
X0164618Y0168876D02*
X0161972Y0168876D01*
X0161972Y0169536D02*
X0164618Y0169536D01*
X0164618Y0170196D02*
X0161972Y0170196D01*
X0161972Y0170856D02*
X0164618Y0170856D01*
X0164618Y0171516D02*
X0161972Y0171516D01*
X0161972Y0172176D02*
X0164618Y0172176D01*
X0164618Y0172836D02*
X0161972Y0172836D01*
X0161972Y0173496D02*
X0164618Y0173496D01*
X0164618Y0174156D02*
X0161972Y0174156D01*
X0161972Y0174816D02*
X0164618Y0174816D01*
X0164618Y0175476D02*
X0161972Y0175476D01*
X0159618Y0166896D02*
X0156972Y0166896D01*
X0156972Y0175842D01*
X0159618Y0175842D01*
X0159618Y0166896D01*
X0159618Y0167556D02*
X0156972Y0167556D01*
X0156972Y0168216D02*
X0159618Y0168216D01*
X0159618Y0168876D02*
X0156972Y0168876D01*
X0156972Y0169536D02*
X0159618Y0169536D01*
X0159618Y0170196D02*
X0156972Y0170196D01*
X0156972Y0170856D02*
X0159618Y0170856D01*
X0159618Y0171516D02*
X0156972Y0171516D01*
X0156972Y0172176D02*
X0159618Y0172176D01*
X0159618Y0172836D02*
X0156972Y0172836D01*
X0156972Y0173496D02*
X0159618Y0173496D01*
X0159618Y0174156D02*
X0156972Y0174156D01*
X0156972Y0174816D02*
X0159618Y0174816D01*
X0159618Y0175476D02*
X0156972Y0175476D01*
X0154618Y0166896D02*
X0151972Y0166896D01*
X0151972Y0175842D01*
X0154618Y0175842D01*
X0154618Y0166896D01*
X0154618Y0167556D02*
X0151972Y0167556D01*
X0151972Y0168216D02*
X0154618Y0168216D01*
X0154618Y0168876D02*
X0151972Y0168876D01*
X0151972Y0169536D02*
X0154618Y0169536D01*
X0154618Y0170196D02*
X0151972Y0170196D01*
X0151972Y0170856D02*
X0154618Y0170856D01*
X0154618Y0171516D02*
X0151972Y0171516D01*
X0151972Y0172176D02*
X0154618Y0172176D01*
X0154618Y0172836D02*
X0151972Y0172836D01*
X0151972Y0173496D02*
X0154618Y0173496D01*
X0154618Y0174156D02*
X0151972Y0174156D01*
X0151972Y0174816D02*
X0154618Y0174816D01*
X0154618Y0175476D02*
X0151972Y0175476D01*
D20*
X0147540Y0225857D02*
X0139604Y0225857D01*
X0147540Y0225857D02*
X0147540Y0212409D01*
X0139604Y0212409D01*
X0139604Y0225857D01*
X0139604Y0214392D02*
X0147540Y0214392D01*
X0147540Y0216375D02*
X0139604Y0216375D01*
X0139604Y0218358D02*
X0147540Y0218358D01*
X0147540Y0220341D02*
X0139604Y0220341D01*
X0139604Y0222324D02*
X0147540Y0222324D01*
X0147540Y0224307D02*
X0139604Y0224307D01*
X0161651Y0225857D02*
X0169587Y0225857D01*
X0169587Y0212409D01*
X0161651Y0212409D01*
X0161651Y0225857D01*
X0161651Y0214392D02*
X0169587Y0214392D01*
X0169587Y0216375D02*
X0161651Y0216375D01*
X0161651Y0218358D02*
X0169587Y0218358D01*
X0169587Y0220341D02*
X0161651Y0220341D01*
X0161651Y0222324D02*
X0169587Y0222324D01*
X0169587Y0224307D02*
X0161651Y0224307D01*
D21*
X0119195Y0167533D03*
X0103995Y0167533D03*
X0103995Y0156333D03*
X0103995Y0145133D03*
X0103995Y0133933D03*
X0119195Y0133933D03*
X0119195Y0145133D03*
X0119195Y0156333D03*
X0203195Y0149133D03*
X0203195Y0164333D03*
D22*
X0161595Y0110933D03*
X0171995Y0110933D03*
X0171995Y0140933D03*
X0161595Y0140933D03*
X0183995Y0170433D03*
X0183995Y0180433D03*
X0176195Y0188933D03*
X0160895Y0189133D03*
X0150895Y0189133D03*
X0132995Y0189233D03*
X0132995Y0219233D03*
X0176195Y0218933D03*
X0720195Y0213533D03*
X0720195Y0203533D03*
X0720195Y0169133D03*
X0720195Y0159133D03*
X0720195Y0124733D03*
X0720195Y0114733D03*
X0720195Y0247933D03*
X0720195Y0257933D03*
X0720195Y0292333D03*
X0720195Y0302333D03*
X0720595Y0336733D03*
X0720595Y0346733D03*
X0720595Y0381133D03*
X0720595Y0391133D03*
X0720595Y0425533D03*
X0720595Y0435533D03*
D23*
X0162395Y0238233D02*
X0156795Y0238233D01*
X0162395Y0238233D02*
X0162395Y0227633D01*
X0156795Y0227633D01*
X0156795Y0238233D01*
X0156795Y0229032D02*
X0162395Y0229032D01*
X0162395Y0230431D02*
X0156795Y0230431D01*
X0156795Y0231830D02*
X0162395Y0231830D01*
X0162395Y0233229D02*
X0156795Y0233229D01*
X0156795Y0234628D02*
X0162395Y0234628D01*
X0162395Y0236027D02*
X0156795Y0236027D01*
X0156795Y0237426D02*
X0162395Y0237426D01*
X0152395Y0238233D02*
X0146795Y0238233D01*
X0152395Y0238233D02*
X0152395Y0227633D01*
X0146795Y0227633D01*
X0146795Y0238233D01*
X0146795Y0229032D02*
X0152395Y0229032D01*
X0152395Y0230431D02*
X0146795Y0230431D01*
X0146795Y0231830D02*
X0152395Y0231830D01*
X0152395Y0233229D02*
X0146795Y0233229D01*
X0146795Y0234628D02*
X0152395Y0234628D01*
X0152395Y0236027D02*
X0146795Y0236027D01*
X0146795Y0237426D02*
X0152395Y0237426D01*
D24*
X0407658Y0094083D03*
X0427658Y0094083D03*
D25*
X0388375Y0099040D03*
X0616721Y0099040D03*
X0616721Y0291954D03*
X0388375Y0291954D03*
D26*
X0439795Y0176533D03*
X0458995Y0176533D03*
X0478195Y0176533D03*
X0497395Y0176533D03*
X0516595Y0176533D03*
X0535795Y0176533D03*
X0554995Y0176533D03*
X0574195Y0176533D03*
X0185795Y0229333D03*
X0185795Y0241733D03*
X0185795Y0254133D03*
X0185795Y0266533D03*
X0185795Y0278933D03*
X0167395Y0284933D03*
X0167395Y0272533D03*
X0177395Y0329333D03*
D27*
X0186996Y0350733D02*
X0188398Y0352134D01*
X0188398Y0354937D01*
X0190199Y0354937D02*
X0190199Y0350733D01*
X0193001Y0350733D01*
X0194803Y0350733D02*
X0194803Y0354937D01*
X0196905Y0354937D01*
X0197605Y0354236D01*
X0197605Y0352835D01*
X0196905Y0352134D01*
X0194803Y0352134D01*
X0196204Y0352134D02*
X0197605Y0350733D01*
X0199407Y0350733D02*
X0200808Y0350733D01*
X0200108Y0350733D02*
X0200108Y0354937D01*
X0199407Y0354937D01*
X0199407Y0358233D02*
X0200808Y0358233D01*
X0200108Y0358233D02*
X0200108Y0361035D01*
X0199407Y0361035D01*
X0200108Y0362437D02*
X0200108Y0363137D01*
X0197605Y0361035D02*
X0195504Y0361035D01*
X0194803Y0360335D01*
X0195504Y0359634D01*
X0196905Y0359634D01*
X0197605Y0358934D01*
X0196905Y0358233D01*
X0194803Y0358233D01*
X0193001Y0359634D02*
X0190199Y0359634D01*
X0190199Y0358934D02*
X0190199Y0360335D01*
X0190900Y0361035D01*
X0192301Y0361035D01*
X0193001Y0360335D01*
X0193001Y0359634D01*
X0192301Y0358233D02*
X0190900Y0358233D01*
X0190199Y0358934D01*
X0188398Y0358233D02*
X0186296Y0358233D01*
X0185595Y0358934D01*
X0185595Y0360335D01*
X0186296Y0361035D01*
X0188398Y0361035D01*
X0188398Y0362437D02*
X0188398Y0358233D01*
X0185595Y0354937D02*
X0185595Y0352134D01*
X0186996Y0350733D01*
X0202476Y0351434D02*
X0203177Y0350733D01*
X0205279Y0350733D01*
X0205279Y0352835D01*
X0204578Y0353535D01*
X0203177Y0353535D01*
X0203177Y0352134D02*
X0205279Y0352134D01*
X0203177Y0352134D02*
X0202476Y0351434D01*
X0207080Y0350733D02*
X0209182Y0350733D01*
X0209883Y0351434D01*
X0209883Y0352835D01*
X0209182Y0353535D01*
X0207080Y0353535D01*
X0207080Y0354937D02*
X0207080Y0350733D01*
X0211684Y0350733D02*
X0211684Y0351434D01*
X0212385Y0351434D01*
X0212385Y0350733D01*
X0211684Y0350733D01*
X0213986Y0351434D02*
X0214687Y0350733D01*
X0216788Y0350733D01*
X0218590Y0351434D02*
X0219291Y0350733D01*
X0220692Y0350733D01*
X0221392Y0351434D01*
X0221392Y0352835D01*
X0220692Y0353535D01*
X0219291Y0353535D01*
X0218590Y0352835D01*
X0218590Y0351434D01*
X0216788Y0353535D02*
X0214687Y0353535D01*
X0213986Y0352835D01*
X0213986Y0351434D01*
X0213786Y0358233D02*
X0212385Y0358233D01*
X0211684Y0358934D01*
X0211684Y0360335D01*
X0212385Y0361035D01*
X0213786Y0361035D01*
X0214486Y0360335D01*
X0214486Y0359634D01*
X0211684Y0359634D01*
X0209883Y0360335D02*
X0209182Y0361035D01*
X0207080Y0361035D01*
X0207080Y0358233D01*
X0205279Y0358233D02*
X0203177Y0358233D01*
X0202476Y0358934D01*
X0202476Y0360335D01*
X0203177Y0361035D01*
X0205279Y0361035D01*
X0205279Y0357532D01*
X0204578Y0356832D01*
X0203877Y0356832D01*
X0209883Y0358233D02*
X0209883Y0360335D01*
X0216288Y0360335D02*
X0216989Y0361035D01*
X0219090Y0361035D01*
X0219090Y0362437D02*
X0219090Y0358233D01*
X0216989Y0358233D01*
X0216288Y0358934D01*
X0216288Y0360335D01*
X0225496Y0361035D02*
X0227598Y0361035D01*
X0228298Y0360335D01*
X0228298Y0358934D01*
X0227598Y0358233D01*
X0225496Y0358233D01*
X0225496Y0362437D01*
X0230100Y0361035D02*
X0230100Y0358934D01*
X0230800Y0358233D01*
X0232902Y0358233D01*
X0232902Y0357532D02*
X0232202Y0356832D01*
X0231501Y0356832D01*
X0232902Y0357532D02*
X0232902Y0361035D01*
X0225296Y0353535D02*
X0225996Y0352835D01*
X0225996Y0350733D01*
X0224595Y0350733D02*
X0224595Y0352835D01*
X0225296Y0353535D01*
X0224595Y0352835D02*
X0223894Y0353535D01*
X0223194Y0353535D01*
X0223194Y0350733D01*
D28*
X0196595Y0319733D03*
X0192995Y0315333D03*
X0176995Y0286533D03*
X0142195Y0309333D03*
X0136995Y0299333D03*
X0128995Y0294533D03*
X0132595Y0284533D03*
X0122195Y0274933D03*
X0125395Y0271333D03*
X0128995Y0264133D03*
X0126595Y0234133D03*
X0197395Y0227733D03*
X0197195Y0216933D03*
X0206195Y0212133D03*
X0215395Y0216933D03*
X0214195Y0227733D03*
X0213795Y0256933D03*
X0197395Y0256933D03*
X0129395Y0314533D03*
X0129395Y0319333D03*
X0124595Y0323333D03*
X0225195Y0175333D03*
X0225195Y0161333D03*
X0164795Y0162733D03*
X0134295Y0134233D03*
X0111695Y0139733D03*
X0111295Y0150733D03*
X0438195Y0296533D03*
M02*
