G75*
%MOIN*%
%OFA0B0*%
%FSLAX25Y25*%
%IPPOS*%
%LPD*%
%AMOC8*
5,1,8,0,0,1.08239X$1,22.5*
%
%ADD10C,0.02094*%
%ADD11C,0.10360*%
%ADD12OC8,0.10360*%
%ADD13C,0.16535*%
%ADD14R,0.06720X0.06720*%
%ADD15C,0.06720*%
%ADD16R,0.08312X0.08312*%
%ADD17C,0.08312*%
%ADD18C,0.01288*%
%ADD19R,0.00600X0.07200*%
%ADD20OC8,0.07280*%
%ADD21C,0.09240*%
%ADD22C,0.15157*%
%ADD23C,0.00772*%
%ADD24OC8,0.11900*%
%ADD25C,0.04060*%
D10*
X0088073Y0223538D02*
X0118971Y0223538D01*
X0118971Y0215160D01*
X0088073Y0215160D01*
X0088073Y0223538D01*
X0088073Y0217253D02*
X0118971Y0217253D01*
X0118971Y0219346D02*
X0088073Y0219346D01*
X0088073Y0221439D02*
X0118971Y0221439D01*
X0118971Y0223532D02*
X0088073Y0223532D01*
X0088073Y0233538D02*
X0118971Y0233538D01*
X0118971Y0225160D01*
X0088073Y0225160D01*
X0088073Y0233538D01*
X0088073Y0227253D02*
X0118971Y0227253D01*
X0118971Y0229346D02*
X0088073Y0229346D01*
X0088073Y0231439D02*
X0118971Y0231439D01*
X0118971Y0233532D02*
X0088073Y0233532D01*
X0088073Y0243538D02*
X0118971Y0243538D01*
X0118971Y0235160D01*
X0088073Y0235160D01*
X0088073Y0243538D01*
X0088073Y0237253D02*
X0118971Y0237253D01*
X0118971Y0239346D02*
X0088073Y0239346D01*
X0088073Y0241439D02*
X0118971Y0241439D01*
X0118971Y0243532D02*
X0088073Y0243532D01*
X0088073Y0253538D02*
X0118971Y0253538D01*
X0118971Y0245160D01*
X0088073Y0245160D01*
X0088073Y0253538D01*
X0088073Y0247253D02*
X0118971Y0247253D01*
X0118971Y0249346D02*
X0088073Y0249346D01*
X0088073Y0251439D02*
X0118971Y0251439D01*
X0118971Y0253532D02*
X0088073Y0253532D01*
X0088073Y0263538D02*
X0118971Y0263538D01*
X0118971Y0255160D01*
X0088073Y0255160D01*
X0088073Y0263538D01*
X0088073Y0257253D02*
X0118971Y0257253D01*
X0118971Y0259346D02*
X0088073Y0259346D01*
X0088073Y0261439D02*
X0118971Y0261439D01*
X0118971Y0263532D02*
X0088073Y0263532D01*
X0088073Y0273538D02*
X0118971Y0273538D01*
X0118971Y0265160D01*
X0088073Y0265160D01*
X0088073Y0273538D01*
X0088073Y0267253D02*
X0118971Y0267253D01*
X0118971Y0269346D02*
X0088073Y0269346D01*
X0088073Y0271439D02*
X0118971Y0271439D01*
X0118971Y0273532D02*
X0088073Y0273532D01*
X0088073Y0283538D02*
X0118971Y0283538D01*
X0118971Y0275160D01*
X0088073Y0275160D01*
X0088073Y0283538D01*
X0088073Y0277253D02*
X0118971Y0277253D01*
X0118971Y0279346D02*
X0088073Y0279346D01*
X0088073Y0281439D02*
X0118971Y0281439D01*
X0118971Y0283532D02*
X0088073Y0283532D01*
X0088073Y0293538D02*
X0118971Y0293538D01*
X0118971Y0285160D01*
X0088073Y0285160D01*
X0088073Y0293538D01*
X0088073Y0287253D02*
X0118971Y0287253D01*
X0118971Y0289346D02*
X0088073Y0289346D01*
X0088073Y0291439D02*
X0118971Y0291439D01*
X0118971Y0293532D02*
X0088073Y0293532D01*
X0088073Y0303538D02*
X0118971Y0303538D01*
X0118971Y0295160D01*
X0088073Y0295160D01*
X0088073Y0303538D01*
X0088073Y0297253D02*
X0118971Y0297253D01*
X0118971Y0299346D02*
X0088073Y0299346D01*
X0088073Y0301439D02*
X0118971Y0301439D01*
X0118971Y0303532D02*
X0088073Y0303532D01*
X0088073Y0313538D02*
X0118971Y0313538D01*
X0118971Y0305160D01*
X0088073Y0305160D01*
X0088073Y0313538D01*
X0088073Y0307253D02*
X0118971Y0307253D01*
X0118971Y0309346D02*
X0088073Y0309346D01*
X0088073Y0311439D02*
X0118971Y0311439D01*
X0118971Y0313532D02*
X0088073Y0313532D01*
X0088073Y0323538D02*
X0118971Y0323538D01*
X0118971Y0315160D01*
X0088073Y0315160D01*
X0088073Y0323538D01*
X0088073Y0317253D02*
X0118971Y0317253D01*
X0118971Y0319346D02*
X0088073Y0319346D01*
X0088073Y0321439D02*
X0118971Y0321439D01*
X0118971Y0323532D02*
X0088073Y0323532D01*
X0088073Y0333538D02*
X0118971Y0333538D01*
X0118971Y0325160D01*
X0088073Y0325160D01*
X0088073Y0333538D01*
X0088073Y0327253D02*
X0118971Y0327253D01*
X0118971Y0329346D02*
X0088073Y0329346D01*
X0088073Y0331439D02*
X0118971Y0331439D01*
X0118971Y0333532D02*
X0088073Y0333532D01*
D11*
X0286972Y0251133D03*
X0296972Y0251133D03*
X0306972Y0231133D03*
X0316972Y0231133D03*
X0326972Y0231133D03*
X0336972Y0231133D03*
X0346972Y0231133D03*
X0356972Y0231133D03*
X0366972Y0231133D03*
X0376972Y0231133D03*
X0396972Y0231133D03*
X0406972Y0231133D03*
X0416972Y0231133D03*
X0426972Y0231133D03*
X0436972Y0231133D03*
X0446972Y0231133D03*
X0456972Y0231133D03*
X0466972Y0231133D03*
X0486972Y0231133D03*
X0496972Y0231133D03*
X0506972Y0231133D03*
X0516972Y0231133D03*
X0526972Y0231133D03*
X0536972Y0231133D03*
X0546972Y0231133D03*
X0556972Y0231133D03*
X0423972Y0353133D03*
X0423972Y0363133D03*
X0423972Y0373133D03*
X0423972Y0383133D03*
X0423972Y0393133D03*
X0423972Y0403133D03*
X0426972Y0421133D03*
X0416972Y0421133D03*
X0436972Y0421133D03*
X0446972Y0421133D03*
X0456972Y0421133D03*
X0466972Y0421133D03*
X0476972Y0421133D03*
X0486972Y0421133D03*
X0502972Y0421133D03*
X0512972Y0421133D03*
X0522972Y0421133D03*
X0532972Y0421133D03*
X0542972Y0421133D03*
X0552972Y0421133D03*
X0562972Y0421133D03*
X0572972Y0421133D03*
X0582972Y0421133D03*
X0592972Y0421133D03*
X0565972Y0392333D03*
X0555972Y0392333D03*
X0545972Y0392333D03*
X0535972Y0392333D03*
X0396972Y0421133D03*
X0386972Y0421133D03*
X0376972Y0421133D03*
X0366972Y0421133D03*
X0356972Y0421133D03*
X0346972Y0421133D03*
X0336972Y0421133D03*
X0326972Y0421133D03*
X0296972Y0421133D03*
X0286972Y0421133D03*
D12*
X0286972Y0411133D03*
X0296972Y0411133D03*
X0296972Y0401133D03*
X0286972Y0401133D03*
X0286972Y0391133D03*
X0296972Y0391133D03*
X0296972Y0381133D03*
X0286972Y0381133D03*
X0286972Y0371133D03*
X0296972Y0371133D03*
X0296972Y0361133D03*
X0286972Y0361133D03*
X0286972Y0351133D03*
X0296972Y0351133D03*
X0296972Y0341133D03*
X0286972Y0341133D03*
X0286972Y0331133D03*
X0296972Y0331133D03*
X0296972Y0321133D03*
X0286972Y0321133D03*
X0286972Y0311133D03*
X0296972Y0311133D03*
X0296972Y0301133D03*
X0286972Y0301133D03*
X0286972Y0291133D03*
X0296972Y0291133D03*
X0296972Y0281133D03*
X0286972Y0281133D03*
X0286972Y0271133D03*
X0296972Y0271133D03*
X0296972Y0261133D03*
X0286972Y0261133D03*
X0406972Y0321133D03*
X0406972Y0331133D03*
X0406972Y0341133D03*
X0416972Y0341133D03*
X0416972Y0331133D03*
X0416972Y0321133D03*
X0564772Y0289133D03*
X0574772Y0289133D03*
X0574772Y0279133D03*
X0564772Y0279133D03*
X0564772Y0269133D03*
X0574772Y0269133D03*
X0584972Y0378133D03*
X0594972Y0378133D03*
X0594972Y0388133D03*
X0584972Y0388133D03*
X0584972Y0398133D03*
X0594972Y0398133D03*
X0594972Y0408133D03*
X0584972Y0408133D03*
X0604972Y0408133D03*
X0604972Y0398133D03*
D13*
X0606972Y0421133D03*
X0666606Y0445129D03*
X0676414Y0354212D03*
X0666606Y0255129D03*
X0611972Y0231133D03*
X0676414Y0145550D03*
X0409106Y0267629D03*
X0406972Y0251133D03*
X0286972Y0231133D03*
X0387044Y0145550D03*
X0387044Y0354212D03*
X0406972Y0361133D03*
X0311972Y0421133D03*
X0409106Y0432629D03*
D14*
X0366116Y0354788D03*
X0328304Y0342913D03*
X0477910Y0350787D03*
X0658383Y0148976D03*
D15*
X0650509Y0148976D03*
X0642635Y0148976D03*
X0634760Y0148976D03*
X0626886Y0148976D03*
X0619012Y0148976D03*
X0611138Y0148976D03*
X0603264Y0148976D03*
X0595390Y0148976D03*
X0587516Y0148976D03*
X0579642Y0148976D03*
X0571768Y0148976D03*
X0563894Y0148976D03*
X0556020Y0148976D03*
X0548146Y0148976D03*
X0540272Y0148976D03*
X0532398Y0148976D03*
X0524524Y0148976D03*
X0516650Y0148976D03*
X0508776Y0148976D03*
X0500902Y0148976D03*
X0493028Y0148976D03*
X0485154Y0148976D03*
X0477280Y0148976D03*
X0477280Y0141102D03*
X0485154Y0141102D03*
X0493028Y0141102D03*
X0500902Y0141102D03*
X0508776Y0141102D03*
X0516650Y0141102D03*
X0524524Y0141102D03*
X0532398Y0141102D03*
X0540272Y0141102D03*
X0548146Y0141102D03*
X0556020Y0141102D03*
X0563894Y0141102D03*
X0571768Y0141102D03*
X0579642Y0141102D03*
X0587516Y0141102D03*
X0595390Y0141102D03*
X0603264Y0141102D03*
X0611138Y0141102D03*
X0619012Y0141102D03*
X0626886Y0141102D03*
X0634760Y0141102D03*
X0642635Y0141102D03*
X0650509Y0141102D03*
X0658383Y0141102D03*
X0336178Y0342913D03*
X0336178Y0350787D03*
X0328304Y0350787D03*
X0477910Y0358661D03*
X0485784Y0358661D03*
X0493658Y0358661D03*
X0501532Y0358661D03*
X0509406Y0358661D03*
X0517280Y0358661D03*
X0525154Y0358661D03*
X0533028Y0358661D03*
X0540902Y0358661D03*
X0548776Y0358661D03*
X0556650Y0358661D03*
X0564524Y0358661D03*
X0572398Y0358661D03*
X0580272Y0358661D03*
X0588146Y0358661D03*
X0596020Y0358661D03*
X0603894Y0358661D03*
X0611768Y0358661D03*
X0619642Y0358661D03*
X0627516Y0358661D03*
X0635390Y0358661D03*
X0643264Y0358661D03*
X0651138Y0358661D03*
X0659012Y0358661D03*
X0659012Y0350787D03*
X0651138Y0350787D03*
X0643264Y0350787D03*
X0635390Y0350787D03*
X0627516Y0350787D03*
X0619642Y0350787D03*
X0611768Y0350787D03*
X0603894Y0350787D03*
X0596020Y0350787D03*
X0588146Y0350787D03*
X0580272Y0350787D03*
X0572398Y0350787D03*
X0564524Y0350787D03*
X0556650Y0350787D03*
X0548776Y0350787D03*
X0540902Y0350787D03*
X0533028Y0350787D03*
X0525154Y0350787D03*
X0517280Y0350787D03*
X0509406Y0350787D03*
X0501532Y0350787D03*
X0493658Y0350787D03*
X0485784Y0350787D03*
D16*
X0649106Y0440129D03*
X0649106Y0250129D03*
X0407658Y0104083D03*
D17*
X0417658Y0104083D03*
X0427658Y0104083D03*
X0437658Y0104083D03*
X0437658Y0094083D03*
X0447658Y0094083D03*
X0457658Y0094083D03*
X0467658Y0094083D03*
X0477658Y0094083D03*
X0487658Y0094083D03*
X0497658Y0094083D03*
X0507658Y0094083D03*
X0517658Y0094083D03*
X0527658Y0094083D03*
X0537658Y0094083D03*
X0547658Y0094083D03*
X0557658Y0094083D03*
X0567658Y0094083D03*
X0577658Y0094083D03*
X0587658Y0094083D03*
X0597658Y0094083D03*
X0597658Y0104083D03*
X0587658Y0104083D03*
X0577658Y0104083D03*
X0567658Y0104083D03*
X0557658Y0104083D03*
X0547658Y0104083D03*
X0537658Y0104083D03*
X0527658Y0104083D03*
X0517658Y0104083D03*
X0507658Y0104083D03*
X0497658Y0104083D03*
X0487658Y0104083D03*
X0477658Y0104083D03*
X0467658Y0104083D03*
X0457658Y0104083D03*
X0447658Y0104083D03*
X0417658Y0094083D03*
X0429106Y0250129D03*
X0429106Y0260129D03*
X0439106Y0260129D03*
X0449106Y0260129D03*
X0459106Y0260129D03*
X0469106Y0260129D03*
X0469106Y0250129D03*
X0459106Y0250129D03*
X0449106Y0250129D03*
X0439106Y0250129D03*
X0479106Y0250129D03*
X0489106Y0250129D03*
X0499106Y0250129D03*
X0499106Y0260129D03*
X0489106Y0260129D03*
X0479106Y0260129D03*
X0509106Y0260129D03*
X0519106Y0260129D03*
X0529106Y0260129D03*
X0539106Y0260129D03*
X0539106Y0250129D03*
X0529106Y0250129D03*
X0519106Y0250129D03*
X0509106Y0250129D03*
X0549106Y0250129D03*
X0559106Y0250129D03*
X0569106Y0250129D03*
X0579106Y0250129D03*
X0579106Y0260129D03*
X0569106Y0260129D03*
X0559106Y0260129D03*
X0549106Y0260129D03*
X0589106Y0260129D03*
X0599106Y0260129D03*
X0609106Y0260129D03*
X0609106Y0250129D03*
X0599106Y0250129D03*
X0589106Y0250129D03*
X0619106Y0250129D03*
X0629106Y0250129D03*
X0639106Y0250129D03*
X0639106Y0260129D03*
X0629106Y0260129D03*
X0619106Y0260129D03*
X0649106Y0260129D03*
X0639106Y0440129D03*
X0629106Y0440129D03*
X0619106Y0440129D03*
X0609106Y0440129D03*
X0599106Y0440129D03*
X0589106Y0440129D03*
X0579106Y0440129D03*
X0569106Y0440129D03*
X0559106Y0440129D03*
X0549106Y0440129D03*
X0539106Y0440129D03*
X0529106Y0440129D03*
X0519106Y0440129D03*
X0509106Y0440129D03*
X0499106Y0440129D03*
X0489106Y0440129D03*
X0479106Y0440129D03*
X0469106Y0440129D03*
X0459106Y0440129D03*
X0449106Y0440129D03*
X0439106Y0440129D03*
X0429106Y0440129D03*
X0429106Y0450129D03*
X0439106Y0450129D03*
X0449106Y0450129D03*
X0459106Y0450129D03*
X0469106Y0450129D03*
X0479106Y0450129D03*
X0489106Y0450129D03*
X0499106Y0450129D03*
X0509106Y0450129D03*
X0519106Y0450129D03*
X0529106Y0450129D03*
X0539106Y0450129D03*
X0549106Y0450129D03*
X0559106Y0450129D03*
X0569106Y0450129D03*
X0579106Y0450129D03*
X0589106Y0450129D03*
X0599106Y0450129D03*
X0609106Y0450129D03*
X0619106Y0450129D03*
X0629106Y0450129D03*
X0639106Y0450129D03*
X0649106Y0450129D03*
D18*
X0234971Y0267907D02*
X0229819Y0267907D01*
X0229819Y0274759D01*
X0234971Y0274759D01*
X0234971Y0267907D01*
X0234971Y0269194D02*
X0229819Y0269194D01*
X0229819Y0270481D02*
X0234971Y0270481D01*
X0234971Y0271768D02*
X0229819Y0271768D01*
X0229819Y0273055D02*
X0234971Y0273055D01*
X0234971Y0274342D02*
X0229819Y0274342D01*
X0228971Y0267907D02*
X0223819Y0267907D01*
X0223819Y0274759D01*
X0228971Y0274759D01*
X0228971Y0267907D01*
X0228971Y0269194D02*
X0223819Y0269194D01*
X0223819Y0270481D02*
X0228971Y0270481D01*
X0228971Y0271768D02*
X0223819Y0271768D01*
X0223819Y0273055D02*
X0228971Y0273055D01*
X0228971Y0274342D02*
X0223819Y0274342D01*
X0224219Y0253507D02*
X0229371Y0253507D01*
X0224219Y0253507D02*
X0224219Y0260359D01*
X0229371Y0260359D01*
X0229371Y0253507D01*
X0229371Y0254794D02*
X0224219Y0254794D01*
X0224219Y0256081D02*
X0229371Y0256081D01*
X0229371Y0257368D02*
X0224219Y0257368D01*
X0224219Y0258655D02*
X0229371Y0258655D01*
X0229371Y0259942D02*
X0224219Y0259942D01*
X0230219Y0253507D02*
X0235371Y0253507D01*
X0230219Y0253507D02*
X0230219Y0260359D01*
X0235371Y0260359D01*
X0235371Y0253507D01*
X0235371Y0254794D02*
X0230219Y0254794D01*
X0230219Y0256081D02*
X0235371Y0256081D01*
X0235371Y0257368D02*
X0230219Y0257368D01*
X0230219Y0258655D02*
X0235371Y0258655D01*
X0235371Y0259942D02*
X0230219Y0259942D01*
X0229819Y0245559D02*
X0234971Y0245559D01*
X0234971Y0238707D01*
X0229819Y0238707D01*
X0229819Y0245559D01*
X0229819Y0239994D02*
X0234971Y0239994D01*
X0234971Y0241281D02*
X0229819Y0241281D01*
X0229819Y0242568D02*
X0234971Y0242568D01*
X0234971Y0243855D02*
X0229819Y0243855D01*
X0229819Y0245142D02*
X0234971Y0245142D01*
X0228971Y0245559D02*
X0223819Y0245559D01*
X0228971Y0245559D02*
X0228971Y0238707D01*
X0223819Y0238707D01*
X0223819Y0245559D01*
X0223819Y0239994D02*
X0228971Y0239994D01*
X0228971Y0241281D02*
X0223819Y0241281D01*
X0223819Y0242568D02*
X0228971Y0242568D01*
X0228971Y0243855D02*
X0223819Y0243855D01*
X0223819Y0245142D02*
X0228971Y0245142D01*
X0229371Y0224307D02*
X0224219Y0224307D01*
X0224219Y0231159D01*
X0229371Y0231159D01*
X0229371Y0224307D01*
X0229371Y0225594D02*
X0224219Y0225594D01*
X0224219Y0226881D02*
X0229371Y0226881D01*
X0229371Y0228168D02*
X0224219Y0228168D01*
X0224219Y0229455D02*
X0229371Y0229455D01*
X0229371Y0230742D02*
X0224219Y0230742D01*
X0230219Y0224307D02*
X0235371Y0224307D01*
X0230219Y0224307D02*
X0230219Y0231159D01*
X0235371Y0231159D01*
X0235371Y0224307D01*
X0235371Y0225594D02*
X0230219Y0225594D01*
X0230219Y0226881D02*
X0235371Y0226881D01*
X0235371Y0228168D02*
X0230219Y0228168D01*
X0230219Y0229455D02*
X0235371Y0229455D01*
X0235371Y0230742D02*
X0230219Y0230742D01*
X0230219Y0216759D02*
X0235371Y0216759D01*
X0235371Y0209907D01*
X0230219Y0209907D01*
X0230219Y0216759D01*
X0230219Y0211194D02*
X0235371Y0211194D01*
X0235371Y0212481D02*
X0230219Y0212481D01*
X0230219Y0213768D02*
X0235371Y0213768D01*
X0235371Y0215055D02*
X0230219Y0215055D01*
X0230219Y0216342D02*
X0235371Y0216342D01*
X0229371Y0216759D02*
X0224219Y0216759D01*
X0229371Y0216759D02*
X0229371Y0209907D01*
X0224219Y0209907D01*
X0224219Y0216759D01*
X0224219Y0211194D02*
X0229371Y0211194D01*
X0229371Y0212481D02*
X0224219Y0212481D01*
X0224219Y0213768D02*
X0229371Y0213768D01*
X0229371Y0215055D02*
X0224219Y0215055D01*
X0224219Y0216342D02*
X0229371Y0216342D01*
X0229771Y0202359D02*
X0224619Y0202359D01*
X0229771Y0202359D02*
X0229771Y0195507D01*
X0224619Y0195507D01*
X0224619Y0202359D01*
X0224619Y0196794D02*
X0229771Y0196794D01*
X0229771Y0198081D02*
X0224619Y0198081D01*
X0224619Y0199368D02*
X0229771Y0199368D01*
X0229771Y0200655D02*
X0224619Y0200655D01*
X0224619Y0201942D02*
X0229771Y0201942D01*
X0230619Y0202359D02*
X0235771Y0202359D01*
X0235771Y0195507D01*
X0230619Y0195507D01*
X0230619Y0202359D01*
X0230619Y0196794D02*
X0235771Y0196794D01*
X0235771Y0198081D02*
X0230619Y0198081D01*
X0230619Y0199368D02*
X0235771Y0199368D01*
X0235771Y0200655D02*
X0230619Y0200655D01*
X0230619Y0201942D02*
X0235771Y0201942D01*
X0183171Y0295907D02*
X0178019Y0295907D01*
X0178019Y0302759D01*
X0183171Y0302759D01*
X0183171Y0295907D01*
X0183171Y0297194D02*
X0178019Y0297194D01*
X0178019Y0298481D02*
X0183171Y0298481D01*
X0183171Y0299768D02*
X0178019Y0299768D01*
X0178019Y0301055D02*
X0183171Y0301055D01*
X0183171Y0302342D02*
X0178019Y0302342D01*
X0177171Y0295907D02*
X0172019Y0295907D01*
X0172019Y0302759D01*
X0177171Y0302759D01*
X0177171Y0295907D01*
X0177171Y0297194D02*
X0172019Y0297194D01*
X0172019Y0298481D02*
X0177171Y0298481D01*
X0177171Y0299768D02*
X0172019Y0299768D01*
X0172019Y0301055D02*
X0177171Y0301055D01*
X0177171Y0302342D02*
X0172019Y0302342D01*
X0171919Y0305907D02*
X0177071Y0305907D01*
X0171919Y0305907D02*
X0171919Y0312759D01*
X0177071Y0312759D01*
X0177071Y0305907D01*
X0177071Y0307194D02*
X0171919Y0307194D01*
X0171919Y0308481D02*
X0177071Y0308481D01*
X0177071Y0309768D02*
X0171919Y0309768D01*
X0171919Y0311055D02*
X0177071Y0311055D01*
X0177071Y0312342D02*
X0171919Y0312342D01*
X0177919Y0305907D02*
X0183071Y0305907D01*
X0177919Y0305907D02*
X0177919Y0312759D01*
X0183071Y0312759D01*
X0183071Y0305907D01*
X0183071Y0307194D02*
X0177919Y0307194D01*
X0177919Y0308481D02*
X0183071Y0308481D01*
X0183071Y0309768D02*
X0177919Y0309768D01*
X0177919Y0311055D02*
X0183071Y0311055D01*
X0183071Y0312342D02*
X0177919Y0312342D01*
D19*
X0177495Y0309333D03*
X0177595Y0299333D03*
X0229395Y0271333D03*
X0229795Y0256933D03*
X0229395Y0242133D03*
X0229795Y0227733D03*
X0229795Y0213333D03*
X0230195Y0198933D03*
D20*
X0161595Y0110933D03*
X0171995Y0110933D03*
X0171995Y0140933D03*
X0161595Y0140933D03*
X0183995Y0170433D03*
X0183995Y0180433D03*
X0176195Y0188933D03*
X0160895Y0189133D03*
X0150895Y0189133D03*
X0132995Y0189233D03*
X0132995Y0219233D03*
X0176195Y0218933D03*
X0720195Y0213533D03*
X0720195Y0203533D03*
X0720195Y0169133D03*
X0720195Y0159133D03*
X0720195Y0124733D03*
X0720195Y0114733D03*
X0720195Y0247933D03*
X0720195Y0257933D03*
X0720195Y0292333D03*
X0720195Y0302333D03*
X0720595Y0336733D03*
X0720595Y0346733D03*
X0720595Y0381133D03*
X0720595Y0391133D03*
X0720595Y0425533D03*
X0720595Y0435533D03*
D21*
X0427658Y0094083D03*
X0407658Y0094083D03*
D22*
X0388375Y0099040D03*
X0616721Y0099040D03*
X0616721Y0291954D03*
X0388375Y0291954D03*
D23*
X0597740Y0212776D02*
X0597740Y0209690D01*
X0591504Y0209690D01*
X0591504Y0212776D01*
X0597740Y0212776D01*
X0597740Y0210461D02*
X0591504Y0210461D01*
X0591504Y0211232D02*
X0597740Y0211232D01*
X0597740Y0212003D02*
X0591504Y0212003D01*
X0591504Y0212774D02*
X0597740Y0212774D01*
X0597740Y0207776D02*
X0597740Y0204690D01*
X0591504Y0204690D01*
X0591504Y0207776D01*
X0597740Y0207776D01*
X0597740Y0205461D02*
X0591504Y0205461D01*
X0591504Y0206232D02*
X0597740Y0206232D01*
X0597740Y0207003D02*
X0591504Y0207003D01*
X0591504Y0207774D02*
X0597740Y0207774D01*
X0597740Y0202776D02*
X0597740Y0199690D01*
X0591504Y0199690D01*
X0591504Y0202776D01*
X0597740Y0202776D01*
X0597740Y0200461D02*
X0591504Y0200461D01*
X0591504Y0201232D02*
X0597740Y0201232D01*
X0597740Y0202003D02*
X0591504Y0202003D01*
X0591504Y0202774D02*
X0597740Y0202774D01*
X0597740Y0197776D02*
X0597740Y0194690D01*
X0591504Y0194690D01*
X0591504Y0197776D01*
X0597740Y0197776D01*
X0597740Y0195461D02*
X0591504Y0195461D01*
X0591504Y0196232D02*
X0597740Y0196232D01*
X0597740Y0197003D02*
X0591504Y0197003D01*
X0591504Y0197774D02*
X0597740Y0197774D01*
X0597740Y0192776D02*
X0597740Y0189690D01*
X0591504Y0189690D01*
X0591504Y0192776D01*
X0597740Y0192776D01*
X0597740Y0190461D02*
X0591504Y0190461D01*
X0591504Y0191232D02*
X0597740Y0191232D01*
X0597740Y0192003D02*
X0591504Y0192003D01*
X0591504Y0192774D02*
X0597740Y0192774D01*
X0597740Y0187776D02*
X0597740Y0184690D01*
X0591504Y0184690D01*
X0591504Y0187776D01*
X0597740Y0187776D01*
X0597740Y0185461D02*
X0591504Y0185461D01*
X0591504Y0186232D02*
X0597740Y0186232D01*
X0597740Y0187003D02*
X0591504Y0187003D01*
X0591504Y0187774D02*
X0597740Y0187774D01*
X0597740Y0182776D02*
X0597740Y0179690D01*
X0591504Y0179690D01*
X0591504Y0182776D01*
X0597740Y0182776D01*
X0597740Y0180461D02*
X0591504Y0180461D01*
X0591504Y0181232D02*
X0597740Y0181232D01*
X0597740Y0182003D02*
X0591504Y0182003D01*
X0591504Y0182774D02*
X0597740Y0182774D01*
X0597740Y0177776D02*
X0597740Y0174690D01*
X0591504Y0174690D01*
X0591504Y0177776D01*
X0597740Y0177776D01*
X0597740Y0175461D02*
X0591504Y0175461D01*
X0591504Y0176232D02*
X0597740Y0176232D01*
X0597740Y0177003D02*
X0591504Y0177003D01*
X0591504Y0177774D02*
X0597740Y0177774D01*
X0624086Y0177776D02*
X0624086Y0174690D01*
X0617850Y0174690D01*
X0617850Y0177776D01*
X0624086Y0177776D01*
X0624086Y0175461D02*
X0617850Y0175461D01*
X0617850Y0176232D02*
X0624086Y0176232D01*
X0624086Y0177003D02*
X0617850Y0177003D01*
X0617850Y0177774D02*
X0624086Y0177774D01*
X0624086Y0179690D02*
X0624086Y0182776D01*
X0624086Y0179690D02*
X0617850Y0179690D01*
X0617850Y0182776D01*
X0624086Y0182776D01*
X0624086Y0180461D02*
X0617850Y0180461D01*
X0617850Y0181232D02*
X0624086Y0181232D01*
X0624086Y0182003D02*
X0617850Y0182003D01*
X0617850Y0182774D02*
X0624086Y0182774D01*
X0624086Y0184690D02*
X0624086Y0187776D01*
X0624086Y0184690D02*
X0617850Y0184690D01*
X0617850Y0187776D01*
X0624086Y0187776D01*
X0624086Y0185461D02*
X0617850Y0185461D01*
X0617850Y0186232D02*
X0624086Y0186232D01*
X0624086Y0187003D02*
X0617850Y0187003D01*
X0617850Y0187774D02*
X0624086Y0187774D01*
X0624086Y0189690D02*
X0624086Y0192776D01*
X0624086Y0189690D02*
X0617850Y0189690D01*
X0617850Y0192776D01*
X0624086Y0192776D01*
X0624086Y0190461D02*
X0617850Y0190461D01*
X0617850Y0191232D02*
X0624086Y0191232D01*
X0624086Y0192003D02*
X0617850Y0192003D01*
X0617850Y0192774D02*
X0624086Y0192774D01*
X0624086Y0194690D02*
X0624086Y0197776D01*
X0624086Y0194690D02*
X0617850Y0194690D01*
X0617850Y0197776D01*
X0624086Y0197776D01*
X0624086Y0195461D02*
X0617850Y0195461D01*
X0617850Y0196232D02*
X0624086Y0196232D01*
X0624086Y0197003D02*
X0617850Y0197003D01*
X0617850Y0197774D02*
X0624086Y0197774D01*
X0624086Y0199690D02*
X0624086Y0202776D01*
X0624086Y0199690D02*
X0617850Y0199690D01*
X0617850Y0202776D01*
X0624086Y0202776D01*
X0624086Y0200461D02*
X0617850Y0200461D01*
X0617850Y0201232D02*
X0624086Y0201232D01*
X0624086Y0202003D02*
X0617850Y0202003D01*
X0617850Y0202774D02*
X0624086Y0202774D01*
X0624086Y0204690D02*
X0624086Y0207776D01*
X0624086Y0204690D02*
X0617850Y0204690D01*
X0617850Y0207776D01*
X0624086Y0207776D01*
X0624086Y0205461D02*
X0617850Y0205461D01*
X0617850Y0206232D02*
X0624086Y0206232D01*
X0624086Y0207003D02*
X0617850Y0207003D01*
X0617850Y0207774D02*
X0624086Y0207774D01*
X0624086Y0209690D02*
X0624086Y0212776D01*
X0624086Y0209690D02*
X0617850Y0209690D01*
X0617850Y0212776D01*
X0624086Y0212776D01*
X0624086Y0210461D02*
X0617850Y0210461D01*
X0617850Y0211232D02*
X0624086Y0211232D01*
X0624086Y0212003D02*
X0617850Y0212003D01*
X0617850Y0212774D02*
X0624086Y0212774D01*
D24*
X0574195Y0176533D03*
X0554995Y0176533D03*
X0535795Y0176533D03*
X0516595Y0176533D03*
X0497395Y0176533D03*
X0478195Y0176533D03*
X0458995Y0176533D03*
X0439795Y0176533D03*
X0185795Y0229333D03*
X0185795Y0241733D03*
X0185795Y0254133D03*
X0185795Y0266533D03*
X0185795Y0278933D03*
X0167395Y0284933D03*
X0167395Y0272533D03*
X0177395Y0329333D03*
D25*
X0192995Y0315333D03*
X0196595Y0319733D03*
X0176995Y0286533D03*
X0142195Y0309333D03*
X0136995Y0299333D03*
X0128995Y0294533D03*
X0132595Y0284533D03*
X0122195Y0274933D03*
X0125395Y0271333D03*
X0128995Y0264133D03*
X0126595Y0234133D03*
X0197395Y0227733D03*
X0197195Y0216933D03*
X0206195Y0212133D03*
X0215395Y0216933D03*
X0214195Y0227733D03*
X0213795Y0256933D03*
X0197395Y0256933D03*
X0129395Y0314533D03*
X0129395Y0319333D03*
X0124595Y0323333D03*
X0225195Y0175333D03*
X0225195Y0161333D03*
X0164795Y0162733D03*
X0134295Y0134233D03*
X0111695Y0139733D03*
X0111295Y0150733D03*
X0438195Y0296533D03*
M02*
