%
M48
M72
T01C0.01300
T02C0.03937
T03C0.06299
T04C0.11024
%
T01
X257275Y450453
X254035Y455313
X250795Y460173
X247555Y465033
X244315Y469893
X241075Y474753
X237835Y479613
X234595Y484473
X231355Y489333
X224875Y499053
X322075Y516873
X331795Y507153
X336655Y502293
X341515Y497433
X346375Y492573
X351235Y487713
X356095Y482853
X360955Y477993
X365815Y473133
X370675Y468273
X461395Y497433
X466255Y492573
X471115Y487713
X475975Y482853
X480835Y477993
X485695Y473133
X490555Y468273
X581275Y497433
X586135Y492573
X590995Y487713
X595855Y482853
X600715Y477993
X605575Y473133
X610435Y468273
X701155Y497433
X706015Y492573
X710875Y487713
X715735Y482853
X720595Y477993
X725455Y473133
X730315Y468273
X821035Y497433
X825895Y492573
X830755Y487713
X835615Y482853
X840475Y477993
X845335Y473133
X850195Y468273
X940915Y497433
X945775Y492573
X950635Y487713
X955495Y482853
X960355Y477993
X965215Y473133
X970075Y468273
X1060795Y497433
X1065655Y492573
X1070515Y487713
X1075375Y482853
X1080235Y477993
X1085095Y473133
X1089955Y468273
X1180675Y497433
X1185535Y492573
X1190395Y487713
X1195255Y482853
X1200115Y477993
X1204975Y473133
X1209835Y468273
X1300555Y497433
X1305415Y492573
X1310275Y487713
X1315135Y482853
X1319995Y477993
X1324855Y473133
X1329715Y468273
X1420435Y497433
X1425295Y492573
X1430155Y487713
X1435015Y482853
X1439875Y477993
X1444735Y473133
X1449595Y468273
X1540315Y497433
X1545175Y492573
X1550035Y487713
X1554895Y482853
X1559755Y477993
X1564615Y473133
X1569475Y468273
X1660195Y497433
X1665055Y492573
X1669915Y487713
X1674775Y482853
X1679635Y477993
X1684495Y473133
X1689355Y468273
X1716895Y492573
X1707175Y497433
X1695835Y502293
X1684495Y507153
X1655335Y502293
X1650475Y507153
X1640755Y516873
X1535455Y502293
X1530595Y507153
X1520875Y516873
X1415575Y502293
X1410715Y507153
X1400995Y516873
X1295695Y502293
X1290835Y507153
X1281115Y516873
X1175815Y502293
X1170955Y507153
X1161235Y516873
X1055935Y502293
X1051075Y507153
X1041355Y516873
X936055Y502293
X931195Y507153
X921475Y516873
X816175Y502293
X811315Y507153
X801595Y516873
X696295Y502293
X691435Y507153
X681715Y516873
X576415Y502293
X571555Y507153
X561835Y516873
X456535Y502293
X451675Y507153
X441955Y516873
T02
X427595Y404193
X407595Y404193
X407595Y394193
X427595Y394193
X427595Y384193
X427595Y374193
X407595Y374193
X407595Y384193
X407595Y364193
X407595Y354193
X427595Y354193
X427595Y364193
X427595Y344193
X407595Y344193
X407595Y334193
X407595Y324193
X427595Y324193
X427595Y334193
X427595Y314193
X407595Y314193
X407595Y304193
X407595Y294193
X427595Y294193
X427595Y304193
X527595Y304193
X527595Y294193
X547595Y294193
X547595Y304193
X547595Y314193
X527595Y314193
X527595Y324193
X527595Y334193
X547595Y334193
X547595Y324193
X547595Y344193
X527595Y344193
X527595Y354193
X527595Y364193
X547595Y364193
X547595Y354193
X547595Y374193
X547595Y384193
X527595Y384193
X527595Y374193
X527595Y394193
X547595Y394193
X547595Y404193
X527595Y404193
X647595Y404193
X667595Y404193
X667595Y394193
X647595Y394193
X647595Y384193
X647595Y374193
X667595Y374193
X667595Y384193
X667595Y364193
X667595Y354193
X647595Y354193
X647595Y364193
X647595Y344193
X667595Y344193
X667595Y334193
X667595Y324193
X647595Y324193
X647595Y334193
X647595Y314193
X667595Y314193
X667595Y304193
X667595Y294193
X647595Y294193
X647595Y304193
X767595Y304193
X767595Y294193
X787595Y294193
X787595Y304193
X787595Y314193
X767595Y314193
X767595Y324193
X767595Y334193
X787595Y334193
X787595Y324193
X787595Y344193
X767595Y344193
X767595Y354193
X767595Y364193
X787595Y364193
X787595Y354193
X787595Y374193
X787595Y384193
X767595Y384193
X767595Y374193
X767595Y394193
X787595Y394193
X787595Y404193
X767595Y404193
X887595Y404193
X907595Y404193
X907595Y394193
X887595Y394193
X887595Y384193
X887595Y374193
X907595Y374193
X907595Y384193
X907595Y364193
X907595Y354193
X887595Y354193
X887595Y364193
X887595Y344193
X907595Y344193
X907595Y334193
X907595Y324193
X887595Y324193
X887595Y334193
X887595Y314193
X907595Y314193
X907595Y304193
X907595Y294193
X887595Y294193
X887595Y304193
X1007595Y304193
X1007595Y294193
X1027595Y294193
X1027595Y304193
X1027595Y314193
X1007595Y314193
X1007595Y324193
X1007595Y334193
X1027595Y334193
X1027595Y324193
X1027595Y344193
X1007595Y344193
X1007595Y354193
X1007595Y364193
X1027595Y364193
X1027595Y354193
X1027595Y374193
X1027595Y384193
X1007595Y384193
X1007595Y374193
X1007595Y394193
X1027595Y394193
X1027595Y404193
X1007595Y404193
X1127595Y404193
X1147595Y404193
X1147595Y394193
X1127595Y394193
X1127595Y384193
X1127595Y374193
X1147595Y374193
X1147595Y384193
X1147595Y364193
X1147595Y354193
X1127595Y354193
X1127595Y364193
X1127595Y344193
X1147595Y344193
X1147595Y334193
X1147595Y324193
X1127595Y324193
X1127595Y334193
X1127595Y314193
X1147595Y314193
X1147595Y304193
X1147595Y294193
X1127595Y294193
X1127595Y304193
X1247595Y304193
X1247595Y294193
X1267595Y294193
X1267595Y304193
X1267595Y314193
X1247595Y314193
X1247595Y324193
X1247595Y334193
X1267595Y334193
X1267595Y324193
X1267595Y344193
X1247595Y344193
X1247595Y354193
X1247595Y364193
X1267595Y364193
X1267595Y354193
X1267595Y374193
X1267595Y384193
X1247595Y384193
X1247595Y374193
X1247595Y394193
X1267595Y394193
X1267595Y404193
X1247595Y404193
X1367595Y404193
X1387595Y404193
X1387595Y394193
X1367595Y394193
X1367595Y384193
X1367595Y374193
X1387595Y374193
X1387595Y384193
X1387595Y364193
X1387595Y354193
X1367595Y354193
X1367595Y364193
X1367595Y344193
X1387595Y344193
X1387595Y334193
X1387595Y324193
X1367595Y324193
X1367595Y334193
X1367595Y314193
X1387595Y314193
X1387595Y304193
X1387595Y294193
X1367595Y294193
X1367595Y304193
X1487595Y304193
X1487595Y294193
X1507595Y294193
X1507595Y304193
X1507595Y314193
X1507595Y324193
X1507595Y334193
X1507595Y344193
X1507595Y354193
X1507595Y364193
X1507595Y374193
X1507595Y384193
X1507595Y394193
X1507595Y404193
X1487595Y404193
X1487595Y394193
X1487595Y384193
X1487595Y374193
X1487595Y364193
X1487595Y354193
X1487595Y344193
X1487595Y334193
X1487595Y324193
X1487595Y314193
X1607595Y314193
X1627595Y314193
X1627595Y304193
X1627595Y294193
X1607595Y294193
X1607595Y304193
X1607595Y324193
X1607595Y334193
X1627595Y334193
X1627595Y324193
X1627595Y344193
X1607595Y344193
X1607595Y354193
X1607595Y364193
X1627595Y364193
X1627595Y354193
X1627595Y374193
X1627595Y384193
X1607595Y384193
X1607595Y374193
X1607595Y394193
X1627595Y394193
X1627595Y404193
X1607595Y404193
X1727595Y404193
X1747595Y404193
X1747595Y394193
X1727595Y394193
X1727595Y384193
X1727595Y374193
X1747595Y374193
X1747595Y384193
X1747595Y364193
X1747595Y354193
X1727595Y354193
X1727595Y364193
X1727595Y344193
X1747595Y344193
X1747595Y334193
X1747595Y324193
X1727595Y324193
X1727595Y334193
X1727595Y314193
X1747595Y314193
X1747595Y304193
X1747595Y294193
X1727595Y294193
X1727595Y304193
X307595Y304193
X307595Y294193
X287595Y294193
X287595Y304193
X287595Y314193
X307595Y314193
X307595Y324193
X307595Y334193
X287595Y334193
X287595Y324193
X287595Y344193
X307595Y344193
X307595Y354193
X307595Y364193
X287595Y364193
X287595Y354193
X287595Y374193
X287595Y384193
X307595Y384193
X307595Y374193
X307595Y394193
X287595Y394193
X287595Y404193
X307595Y404193
X187595Y404193
X167595Y404193
X167595Y394193
X187595Y394193
X187595Y384193
X187595Y374193
X167595Y374193
X167595Y384193
X167595Y364193
X167595Y354193
X187595Y354193
X187595Y364193
X187595Y344193
X167595Y344193
X167595Y334193
X167595Y324193
X187595Y324193
X187595Y334193
X187595Y314193
X167595Y314193
X167595Y304193
X167595Y294193
X187595Y294193
X187595Y304193
T03
X115525Y328953
X115525Y349203
X115525Y369453
X117955Y498243
X117955Y514443
X117955Y531453
T04
X172595Y106910
X292595Y106910
X412595Y106910
X532595Y106910
X652595Y106910
X772595Y106910
X892595Y106910
X1012595Y106910
X1132595Y106910
X1252595Y106910
X1372595Y106910
X1492595Y106910
X1612595Y106910
X1732595Y106910
X1732595Y591162
X1612595Y591162
X1492595Y591162
X1372595Y591162
X1252595Y591162
X1132595Y591162
X1012595Y591162
X892595Y591162
X772595Y591162
X652595Y591162
X532595Y591162
X412595Y591162
X292595Y591162
X172595Y591162
M30
